<?xml version="1.0" encoding="UTF-8" standalone="no"?>
<!-- Created with Inkscape (http://www.inkscape.org/) -->

<svg
   width="8.5in"
   height="11in"
   viewBox="0 0 215.9 279.4"
   version="1.1"
   id="svg1"
   inkscape:version="1.4 (86a8ad7, 2024-10-11)"
   sodipodi:docname="iso_v1.svg"
   xmlns:inkscape="http://www.inkscape.org/namespaces/inkscape"
   xmlns:sodipodi="http://sodipodi.sourceforge.net/DTD/sodipodi-0.dtd"
   xmlns="http://www.w3.org/2000/svg"
   xmlns:svg="http://www.w3.org/2000/svg">
  <sodipodi:namedview
     id="namedview1"
     pagecolor="#ffffff"
     bordercolor="#000000"
     borderopacity="0.25"
     inkscape:showpageshadow="2"
     inkscape:pageopacity="0.0"
     inkscape:pagecheckerboard="0"
     inkscape:deskcolor="#d1d1d1"
     inkscape:document-units="mm"
     inkscape:zoom="4"
     inkscape:cx="199.5"
     inkscape:cy="121.625"
     inkscape:window-width="1920"
     inkscape:window-height="991"
     inkscape:window-x="-9"
     inkscape:window-y="-9"
     inkscape:window-maximized="1"
     inkscape:current-layer="svg1" />
  <defs
     id="defs1">
    <inkscape:path-effect
       effect="tiling"
       id="path-effect441"
       is_visible="true"
       lpeversion="1.3.1"
       unit="px"
       seed="1;1"
       lpesatellites=""
       num_rows="38"
       num_cols="15"
       gapx="0"
       gapy="0"
       offset="0"
       offset_type="false"
       scale="0"
       rotate="0"
       mirrorrowsx="false"
       mirrorrowsy="false"
       mirrorcolsx="false"
       mirrorcolsy="false"
       mirrortrans="false"
       shrink_interp="false"
       split_items="false"
       link_styles="false"
       interpolate_scalex="false"
       interpolate_scaley="true"
       interpolate_rotatex="false"
       interpolate_rotatey="true"
       random_scale="false"
       random_rotate="false"
       random_gap_y="false"
       random_gap_x="false"
       transformorigin="" />
    <inkscape:path-effect
       effect="tiling"
       id="path-effect440"
       is_visible="true"
       lpeversion="1.3.1"
       unit="px"
       seed="1;1"
       lpesatellites=""
       num_rows="3"
       num_cols="3"
       gapx="0"
       gapy="0"
       offset="0"
       offset_type="false"
       scale="0"
       rotate="0"
       mirrorrowsx="false"
       mirrorrowsy="false"
       mirrorcolsx="false"
       mirrorcolsy="false"
       mirrortrans="false"
       shrink_interp="false"
       split_items="false"
       link_styles="false"
       interpolate_scalex="false"
       interpolate_scaley="true"
       interpolate_rotatex="false"
       interpolate_rotatey="true"
       random_scale="false"
       random_rotate="false"
       random_gap_y="false"
       random_gap_x="false"
       transformorigin="" />
    <inkscape:path-effect
       effect="tiling"
       id="path-effect436"
       is_visible="true"
       lpeversion="1.3.1"
       unit="in"
       seed="1;1"
       lpesatellites=""
       num_rows="39"
       num_cols="1"
       gapx="0"
       gapy="0.25"
       offset="0"
       offset_type="false"
       scale="0"
       rotate="0"
       mirrorrowsx="false"
       mirrorrowsy="false"
       mirrorcolsx="false"
       mirrorcolsy="false"
       mirrortrans="false"
       shrink_interp="false"
       split_items="false"
       link_styles="false"
       interpolate_scalex="false"
       interpolate_scaley="true"
       interpolate_rotatex="false"
       interpolate_rotatey="true"
       random_scale="false"
       random_rotate="false"
       random_gap_y="false"
       random_gap_x="false"
       transformorigin="" />
    <inkscape:path-effect
       effect="tiling"
       id="path-effect19"
       is_visible="true"
       lpeversion="1.3.1"
       unit="px"
       seed="1;1"
       lpesatellites=""
       num_rows="3"
       num_cols="3"
       gapx="-20.832"
       gapy="-12.12"
       offset="0"
       offset_type="false"
       scale="0"
       rotate="0"
       mirrorrowsx="false"
       mirrorrowsy="false"
       mirrorcolsx="false"
       mirrorcolsy="false"
       mirrortrans="false"
       shrink_interp="false"
       split_items="false"
       link_styles="false"
       interpolate_scalex="false"
       interpolate_scaley="true"
       interpolate_rotatex="false"
       interpolate_rotatey="true"
       random_scale="false"
       random_rotate="false"
       random_gap_y="false"
       random_gap_x="false"
       transformorigin="" />
    <inkscape:path-effect
       effect="tiling"
       id="path-effect18"
       is_visible="true"
       lpeversion="1.3.1"
       unit="px"
       seed="1;1"
       lpesatellites=""
       num_rows="3"
       num_cols="3"
       gapx="0"
       gapy="-10"
       offset="0"
       offset_type="false"
       scale="0"
       rotate="0"
       mirrorrowsx="false"
       mirrorrowsy="false"
       mirrorcolsx="false"
       mirrorcolsy="false"
       mirrortrans="false"
       shrink_interp="false"
       split_items="false"
       link_styles="false"
       interpolate_scalex="false"
       interpolate_scaley="true"
       interpolate_rotatex="false"
       interpolate_rotatey="true"
       random_scale="false"
       random_rotate="false"
       random_gap_y="false"
       random_gap_x="false"
       transformorigin="" />
    <inkscape:path-effect
       effect="tiling"
       id="path-effect16"
       is_visible="true"
       lpeversion="1.3.1"
       unit="px"
       seed="1;1"
       lpesatellites=""
       num_rows="1"
       num_cols="3"
       gapx="0"
       gapy="0"
       offset="0"
       offset_type="false"
       scale="0"
       rotate="0"
       mirrorrowsx="false"
       mirrorrowsy="false"
       mirrorcolsx="false"
       mirrorcolsy="false"
       mirrortrans="false"
       shrink_interp="false"
       split_items="false"
       link_styles="false"
       interpolate_scalex="false"
       interpolate_scaley="true"
       interpolate_rotatex="false"
       interpolate_rotatey="true"
       random_scale="false"
       random_rotate="false"
       random_gap_y="false"
       random_gap_x="false"
       transformorigin="" />
    <inkscape:path-effect
       effect="tiling"
       id="path-effect8"
       is_visible="true"
       lpeversion="1.3.1"
       unit="px"
       seed="1;1"
       lpesatellites=""
       num_rows="1"
       num_cols="7"
       gapx="0"
       gapy="0"
       offset="0"
       offset_type="false"
       scale="0"
       rotate="0"
       mirrorrowsx="false"
       mirrorrowsy="false"
       mirrorcolsx="false"
       mirrorcolsy="false"
       mirrortrans="false"
       shrink_interp="false"
       split_items="false"
       link_styles="false"
       interpolate_scalex="false"
       interpolate_scaley="true"
       interpolate_rotatex="false"
       interpolate_rotatey="true"
       random_scale="false"
       random_rotate="false"
       random_gap_y="false"
       random_gap_x="false"
       transformorigin="" />
    <inkscape:path-effect
       effect="tiling"
       id="path-effect6"
       is_visible="true"
       lpeversion="1.3.1"
       unit="px"
       seed="1;1"
       lpesatellites=""
       num_rows="1"
       num_cols="7"
       gapx="0"
       gapy="0"
       offset="0"
       offset_type="false"
       scale="0"
       rotate="0"
       mirrorrowsx="false"
       mirrorrowsy="false"
       mirrorcolsx="false"
       mirrorcolsy="false"
       mirrortrans="false"
       shrink_interp="false"
       split_items="false"
       link_styles="false"
       interpolate_scalex="false"
       interpolate_scaley="true"
       interpolate_rotatex="false"
       interpolate_rotatey="true"
       random_scale="false"
       random_rotate="false"
       random_gap_y="false"
       random_gap_x="false"
       transformorigin="" />
  </defs>
  <rect
     style="fill:none;stroke-width:0.35277778;stroke-linecap:square;paint-order:markers stroke fill;stroke:#a4dded;stroke-opacity:1;stroke-dasharray:none"
     id="rect434"
     width="177.8"
     height="254"
     x="25.4"
     y="12.7"
     ry="6.3499999"
     inkscape:label="Outer Border" />
  <rect
     style="fill:none;stroke-width:0.17638889;stroke-linecap:square;paint-order:markers stroke fill;stroke:#a4dded;stroke-opacity:1;stroke-dasharray:none"
     id="rect435"
     width="171.45"
     height="247.64999"
     x="28.575001"
     y="15.875"
     ry="3.2585526"
     inkscape:label="Inner Border" />
  <path
     style="fill:none;stroke-width:0.17638889;stroke-linecap:square;paint-order:markers stroke fill;stroke:#a4dded;stroke-opacity:1;stroke-dasharray:none"
     d="M 25.399999,19.05 H 203.19999 M 25.399999,25.4 H 203.19999 M 25.399999,31.75 H 203.19999 M 25.399999,38.1 H 203.19999 M 25.399999,44.45 H 203.19999 M 25.399999,50.8 H 203.19999 M 25.399999,57.15 H 203.19999 M 25.399999,63.5 H 203.19999 M 25.399999,69.85 H 203.19999 M 25.399999,76.2 H 203.19999 M 25.399999,82.55 H 203.19999 M 25.399999,88.9 H 203.19999 M 25.399999,95.25 H 203.19999 M 25.399999,101.6 H 203.19999 M 25.399999,107.95 H 203.19999 M 25.399999,114.3 H 203.19999 M 25.399999,120.65 H 203.19999 M 25.399999,127 H 203.19999 M 25.399999,133.35 H 203.19999 M 25.399999,139.7 H 203.19999 M 25.399999,146.05 H 203.19999 M 25.399999,152.4 H 203.19999 M 25.399999,158.75 H 203.19999 M 25.399999,165.1 H 203.19999 M 25.399999,171.45 H 203.19999 M 25.399999,177.8 H 203.19999 M 25.399999,184.15 H 203.19999 M 25.399999,190.5 H 203.19999 M 25.399999,196.85 H 203.19999 M 25.399999,203.2 H 203.19999 M 25.399999,209.55 H 203.19999 M 25.399999,215.9 H 203.19999 M 25.399999,222.25 H 203.19999 M 25.399999,228.6 H 203.19999 M 25.399999,234.95 H 203.19999 M 25.399999,241.3 H 203.19999 M 25.399999,247.65 H 203.19999 M 25.399999,254 H 203.19999 M 25.399999,260.35 H 203.19999"
     id="path435"
     inkscape:label="Horizontal Rules"
     inkscape:path-effect="#path-effect436"
     inkscape:original-d="M 25.399999,19.05 H 203.19999" />
  <path
     id="path437"
     style="fill:none;stroke-width:0.17638889;stroke-linecap:square;paint-order:markers stroke fill;stroke:#a4dded;stroke-opacity:1;stroke-dasharray:none"
     d="m 196.85,12.7 v 254 M 31.75,12.7 v 254"
     inkscape:label="Margins" />
  <path
     id="path441"
     style="fill:none;stroke-width:0.08816182;stroke-linecap:square;paint-order:markers stroke fill;stroke:#a4dded;stroke-opacity:1;stroke-dasharray:none"
     d="m 37.249262,19.05 v 6.35 m 5.49926,-6.35 v 6.35 m 2e-6,-6.35 -5.499262,3.175 5.499262,3.175 M 31.75,19.05 37.249262,22.225 31.75,25.4 m 16.497786,-6.35 v 6.35 m 5.49926,-6.35 v 6.35 m 2e-6,-6.35 -5.499262,3.175 5.499262,3.175 M 42.748524,19.05 48.247786,22.225 42.748524,25.4 M 59.24631,19.05 v 6.35 m 5.49926,-6.35 v 6.35 m 2e-6,-6.35 -5.499262,3.175 5.499262,3.175 M 53.747048,19.05 59.24631,22.225 53.747048,25.4 m 16.497786,-6.35 v 6.35 m 5.49926,-6.35 v 6.35 m 2e-6,-6.35 -5.499262,3.175 5.499262,3.175 m -10.998524,-6.35 5.499262,3.175 -5.499262,3.175 m 16.497786,-6.35 v 6.35 m 5.49926,-6.35 v 6.35 m 2e-6,-6.35 -5.499262,3.175 5.499262,3.175 m -10.998524,-6.35 5.499262,3.175 -5.499262,3.175 m 16.497786,-6.35 v 6.35 m 5.49926,-6.35 v 6.35 m 2e-6,-6.35 -5.499262,3.175 5.499262,3.175 M 86.74262,19.05 92.241882,22.225 86.74262,25.4 m 16.49779,-6.35 v 6.35 m 5.49926,-6.35 v 6.35 m 0,-6.35 -5.49926,3.175 5.49926,3.175 m -10.998526,-6.35 5.499266,3.175 -5.499266,3.175 m 16.497786,-6.35 v 6.35 m 5.49926,-6.35 v 6.35 m 0,-6.35 -5.49926,3.175 5.49926,3.175 m -10.99852,-6.35 5.49926,3.175 -5.49926,3.175 m 16.49778,-6.35 v 6.35 m 5.49926,-6.35 v 6.35 m 1e-5,-6.35 -5.49927,3.175 5.49927,3.175 m -10.99853,-6.35 5.49926,3.175 -5.49926,3.175 m 16.49779,-6.35 v 6.35 m 5.49926,-6.35 v 6.35 m 0,-6.35 -5.49926,3.175 5.49926,3.175 m -10.99852,-6.35 5.49926,3.175 -5.49926,3.175 m 16.49778,-6.35 v 6.35 m 5.49926,-6.35 v 6.35 m 0,-6.35 -5.49926,3.175 5.49926,3.175 m -10.99852,-6.35 5.49926,3.175 -5.49926,3.175 m 16.49779,-6.35 v 6.35 m 5.49926,-6.35 v 6.35 m 0,-6.35 -5.49926,3.175 5.49926,3.175 m -10.99853,-6.35 5.49927,3.175 -5.49927,3.175 m 16.49779,-6.35 v 6.35 m 5.49926,-6.35 v 6.35 m 0,-6.35 -5.49926,3.175 5.49926,3.175 m -10.99852,-6.35 5.49926,3.175 -5.49926,3.175 m 16.49778,-6.35 v 6.35 m 5.49926,-6.35 v 6.35 m 1e-5,-6.35 -5.49927,3.175 5.49927,3.175 m -10.99853,-6.35 5.49926,3.175 -5.49926,3.175 m 16.49779,-6.35 v 6.35 m 5.49926,-6.35 v 6.35 m 0,-6.35 -5.49926,3.175 5.49926,3.175 m -10.99852,-6.35 5.49926,3.175 -5.49926,3.175 m -148.480078,0 v 6.35 m 5.49926,-6.35 v 6.35 m 2e-6,-6.35 -5.499262,3.175 5.499262,3.175 M 31.75,25.4 37.249262,28.575 31.75,31.75 M 48.247786,25.4 v 6.35 m 5.49926,-6.35 v 6.35 m 2e-6,-6.35 -5.499262,3.175 5.499262,3.175 M 42.748524,25.4 48.247786,28.575 42.748524,31.75 M 59.24631,25.4 v 6.35 m 5.49926,-6.35 v 6.35 m 2e-6,-6.35 -5.499262,3.175 5.499262,3.175 M 53.747048,25.4 59.24631,28.575 53.747048,31.75 M 70.244834,25.4 v 6.35 m 5.49926,-6.35 v 6.35 m 2e-6,-6.35 -5.499262,3.175 5.499262,3.175 M 64.745572,25.4 70.244834,28.575 64.745572,31.75 M 81.243358,25.4 v 6.35 m 5.49926,-6.35 v 6.35 m 2e-6,-6.35 -5.499262,3.175 5.499262,3.175 M 75.744096,25.4 81.243358,28.575 75.744096,31.75 M 92.241882,25.4 v 6.35 m 5.49926,-6.35 v 6.35 m 2e-6,-6.35 -5.499262,3.175 5.499262,3.175 M 86.74262,25.4 92.241882,28.575 86.74262,31.75 m 16.49779,-6.35 v 6.35 m 5.49926,-6.35 v 6.35 m 0,-6.35 -5.49926,3.175 5.49926,3.175 M 97.741144,25.4 103.24041,28.575 97.741144,31.75 M 114.23893,25.4 v 6.35 m 5.49926,-6.35 v 6.35 m 0,-6.35 -5.49926,3.175 5.49926,3.175 m -10.99852,-6.35 5.49926,3.175 -5.49926,3.175 m 16.49778,-6.35 v 6.35 m 5.49926,-6.35 v 6.35 m 1e-5,-6.35 -5.49927,3.175 5.49927,3.175 m -10.99853,-6.35 5.49926,3.175 -5.49926,3.175 m 16.49779,-6.35 v 6.35 m 5.49926,-6.35 v 6.35 m 0,-6.35 -5.49926,3.175 5.49926,3.175 m -10.99852,-6.35 5.49926,3.175 -5.49926,3.175 M 147.2345,25.4 v 6.35 m 5.49926,-6.35 v 6.35 m 0,-6.35 -5.49926,3.175 5.49926,3.175 m -10.99852,-6.35 5.49926,3.175 -5.49926,3.175 m 16.49779,-6.35 v 6.35 m 5.49926,-6.35 v 6.35 m 0,-6.35 -5.49926,3.175 5.49926,3.175 m -10.99853,-6.35 5.49927,3.175 -5.49927,3.175 m 16.49779,-6.35 v 6.35 m 5.49926,-6.35 v 6.35 m 0,-6.35 -5.49926,3.175 5.49926,3.175 m -10.99852,-6.35 5.49926,3.175 -5.49926,3.175 m 16.49778,-6.35 v 6.35 m 5.49926,-6.35 v 6.35 m 1e-5,-6.35 -5.49927,3.175 5.49927,3.175 m -10.99853,-6.35 5.49926,3.175 -5.49926,3.175 M 191.2286,25.4 v 6.35 m 5.49926,-6.35 v 6.35 m 0,-6.35 -5.49926,3.175 5.49926,3.175 m -10.99852,-6.35 5.49926,3.175 -5.49926,3.175 m -148.480078,0 v 6.35 m 5.49926,-6.35 v 6.35 m 2e-6,-6.35 -5.499262,3.175 5.499262,3.175 M 31.75,31.75 37.249262,34.925 31.75,38.1 m 16.497786,-6.35 v 6.35 m 5.49926,-6.35 v 6.35 m 2e-6,-6.35 -5.499262,3.175 5.499262,3.175 M 42.748524,31.75 48.247786,34.925 42.748524,38.1 M 59.24631,31.75 v 6.35 m 5.49926,-6.35 v 6.35 m 2e-6,-6.35 -5.499262,3.175 5.499262,3.175 M 53.747048,31.75 59.24631,34.925 53.747048,38.1 m 16.497786,-6.35 v 6.35 m 5.49926,-6.35 v 6.35 m 2e-6,-6.35 -5.499262,3.175 5.499262,3.175 m -10.998524,-6.35 5.499262,3.175 -5.499262,3.175 m 16.497786,-6.35 v 6.35 m 5.49926,-6.35 v 6.35 m 2e-6,-6.35 -5.499262,3.175 5.499262,3.175 m -10.998524,-6.35 5.499262,3.175 -5.499262,3.175 m 16.497786,-6.35 v 6.35 m 5.49926,-6.35 v 6.35 m 2e-6,-6.35 -5.499262,3.175 5.499262,3.175 M 86.74262,31.75 92.241882,34.925 86.74262,38.1 m 16.49779,-6.35 v 6.35 m 5.49926,-6.35 v 6.35 m 0,-6.35 -5.49926,3.175 5.49926,3.175 m -10.998526,-6.35 5.499266,3.175 -5.499266,3.175 m 16.497786,-6.35 v 6.35 m 5.49926,-6.35 v 6.35 m 0,-6.35 -5.49926,3.175 5.49926,3.175 m -10.99852,-6.35 5.49926,3.175 -5.49926,3.175 m 16.49778,-6.35 v 6.35 m 5.49926,-6.35 v 6.35 m 1e-5,-6.35 -5.49927,3.175 5.49927,3.175 m -10.99853,-6.35 5.49926,3.175 -5.49926,3.175 m 16.49779,-6.35 v 6.35 m 5.49926,-6.35 v 6.35 m 0,-6.35 -5.49926,3.175 5.49926,3.175 m -10.99852,-6.35 5.49926,3.175 -5.49926,3.175 m 16.49778,-6.35 v 6.35 m 5.49926,-6.35 v 6.35 m 0,-6.35 -5.49926,3.175 5.49926,3.175 m -10.99852,-6.35 5.49926,3.175 -5.49926,3.175 m 16.49779,-6.35 v 6.35 m 5.49926,-6.35 v 6.35 m 0,-6.35 -5.49926,3.175 5.49926,3.175 m -10.99853,-6.35 5.49927,3.175 -5.49927,3.175 m 16.49779,-6.35 v 6.35 m 5.49926,-6.35 v 6.35 m 0,-6.35 -5.49926,3.175 5.49926,3.175 m -10.99852,-6.35 5.49926,3.175 -5.49926,3.175 m 16.49778,-6.35 v 6.35 m 5.49926,-6.35 v 6.35 m 1e-5,-6.35 -5.49927,3.175 5.49927,3.175 m -10.99853,-6.35 5.49926,3.175 -5.49926,3.175 m 16.49779,-6.35 v 6.35 m 5.49926,-6.35 v 6.35 m 0,-6.35 -5.49926,3.175 5.49926,3.175 m -10.99852,-6.35 5.49926,3.175 -5.49926,3.175 m -148.480078,0 v 6.35 m 5.49926,-6.35 v 6.35 m 2e-6,-6.35 -5.499262,3.175 5.499262,3.175 M 31.75,38.1 37.249262,41.275 31.75,44.45 M 48.247786,38.1 v 6.35 m 5.49926,-6.35 v 6.35 m 2e-6,-6.35 -5.499262,3.175 5.499262,3.175 M 42.748524,38.1 48.247786,41.275 42.748524,44.45 M 59.24631,38.1 v 6.35 m 5.49926,-6.35 v 6.35 m 2e-6,-6.35 -5.499262,3.175 5.499262,3.175 M 53.747048,38.1 59.24631,41.275 53.747048,44.45 M 70.244834,38.1 v 6.35 m 5.49926,-6.35 v 6.35 m 2e-6,-6.35 -5.499262,3.175 5.499262,3.175 M 64.745572,38.1 70.244834,41.275 64.745572,44.45 M 81.243358,38.1 v 6.35 m 5.49926,-6.35 v 6.35 m 2e-6,-6.35 -5.499262,3.175 5.499262,3.175 M 75.744096,38.1 81.243358,41.275 75.744096,44.45 M 92.241882,38.1 v 6.35 m 5.49926,-6.35 v 6.35 m 2e-6,-6.35 -5.499262,3.175 5.499262,3.175 M 86.74262,38.1 92.241882,41.275 86.74262,44.45 m 16.49779,-6.35 v 6.35 m 5.49926,-6.35 v 6.35 m 0,-6.35 -5.49926,3.175 5.49926,3.175 M 97.741144,38.1 103.24041,41.275 97.741144,44.45 M 114.23893,38.1 v 6.35 m 5.49926,-6.35 v 6.35 m 0,-6.35 -5.49926,3.175 5.49926,3.175 m -10.99852,-6.35 5.49926,3.175 -5.49926,3.175 m 16.49778,-6.35 v 6.35 m 5.49926,-6.35 v 6.35 m 1e-5,-6.35 -5.49927,3.175 5.49927,3.175 m -10.99853,-6.35 5.49926,3.175 -5.49926,3.175 m 16.49779,-6.35 v 6.35 m 5.49926,-6.35 v 6.35 m 0,-6.35 -5.49926,3.175 5.49926,3.175 m -10.99852,-6.35 5.49926,3.175 -5.49926,3.175 M 147.2345,38.1 v 6.35 m 5.49926,-6.35 v 6.35 m 0,-6.35 -5.49926,3.175 5.49926,3.175 m -10.99852,-6.35 5.49926,3.175 -5.49926,3.175 m 16.49779,-6.35 v 6.35 m 5.49926,-6.35 v 6.35 m 0,-6.35 -5.49926,3.175 5.49926,3.175 m -10.99853,-6.35 5.49927,3.175 -5.49927,3.175 m 16.49779,-6.35 v 6.35 m 5.49926,-6.35 v 6.35 m 0,-6.35 -5.49926,3.175 5.49926,3.175 m -10.99852,-6.35 5.49926,3.175 -5.49926,3.175 m 16.49778,-6.35 v 6.35 m 5.49926,-6.35 v 6.35 m 1e-5,-6.35 -5.49927,3.175 5.49927,3.175 m -10.99853,-6.35 5.49926,3.175 -5.49926,3.175 M 191.2286,38.1 v 6.35 m 5.49926,-6.35 v 6.35 m 0,-6.35 -5.49926,3.175 5.49926,3.175 m -10.99852,-6.35 5.49926,3.175 -5.49926,3.175 m -148.480078,0 v 6.35 m 5.49926,-6.35 v 6.35 m 2e-6,-6.35 -5.499262,3.175 5.499262,3.175 M 31.75,44.45 37.249262,47.625 31.75,50.8 m 16.497786,-6.35 v 6.35 m 5.49926,-6.35 v 6.35 m 2e-6,-6.35 -5.499262,3.175 5.499262,3.175 M 42.748524,44.45 48.247786,47.625 42.748524,50.8 M 59.24631,44.45 v 6.35 m 5.49926,-6.35 v 6.35 m 2e-6,-6.35 -5.499262,3.175 5.499262,3.175 M 53.747048,44.45 59.24631,47.625 53.747048,50.8 m 16.497786,-6.35 v 6.35 m 5.49926,-6.35 v 6.35 m 2e-6,-6.35 -5.499262,3.175 5.499262,3.175 m -10.998524,-6.35 5.499262,3.175 -5.499262,3.175 m 16.497786,-6.35 v 6.35 m 5.49926,-6.35 v 6.35 m 2e-6,-6.35 -5.499262,3.175 5.499262,3.175 m -10.998524,-6.35 5.499262,3.175 -5.499262,3.175 m 16.497786,-6.35 v 6.35 m 5.49926,-6.35 v 6.35 m 2e-6,-6.35 -5.499262,3.175 5.499262,3.175 M 86.74262,44.45 92.241882,47.625 86.74262,50.8 m 16.49779,-6.35 v 6.35 m 5.49926,-6.35 v 6.35 m 0,-6.35 -5.49926,3.175 5.49926,3.175 m -10.998526,-6.35 5.499266,3.175 -5.499266,3.175 m 16.497786,-6.35 v 6.35 m 5.49926,-6.35 v 6.35 m 0,-6.35 -5.49926,3.175 5.49926,3.175 m -10.99852,-6.35 5.49926,3.175 -5.49926,3.175 m 16.49778,-6.35 v 6.35 m 5.49926,-6.35 v 6.35 m 1e-5,-6.35 -5.49927,3.175 5.49927,3.175 m -10.99853,-6.35 5.49926,3.175 -5.49926,3.175 m 16.49779,-6.35 v 6.35 m 5.49926,-6.35 v 6.35 m 0,-6.35 -5.49926,3.175 5.49926,3.175 m -10.99852,-6.35 5.49926,3.175 -5.49926,3.175 m 16.49778,-6.35 v 6.35 m 5.49926,-6.35 v 6.35 m 0,-6.35 -5.49926,3.175 5.49926,3.175 m -10.99852,-6.35 5.49926,3.175 -5.49926,3.175 m 16.49779,-6.35 v 6.35 m 5.49926,-6.35 v 6.35 m 0,-6.35 -5.49926,3.175 5.49926,3.175 m -10.99853,-6.35 5.49927,3.175 -5.49927,3.175 m 16.49779,-6.35 v 6.35 m 5.49926,-6.35 v 6.35 m 0,-6.35 -5.49926,3.175 5.49926,3.175 m -10.99852,-6.35 5.49926,3.175 -5.49926,3.175 m 16.49778,-6.35 v 6.35 m 5.49926,-6.35 v 6.35 m 1e-5,-6.35 -5.49927,3.175 5.49927,3.175 m -10.99853,-6.35 5.49926,3.175 -5.49926,3.175 m 16.49779,-6.35 v 6.35 m 5.49926,-6.35 v 6.35 m 0,-6.35 -5.49926,3.175 5.49926,3.175 m -10.99852,-6.35 5.49926,3.175 -5.49926,3.175 m -148.480078,0 v 6.35 m 5.49926,-6.35 v 6.35 m 2e-6,-6.35 -5.499262,3.175 5.499262,3.175 M 31.75,50.8 37.249262,53.975 31.75,57.15 M 48.247786,50.8 v 6.35 m 5.49926,-6.35 v 6.35 m 2e-6,-6.35 -5.499262,3.175 5.499262,3.175 M 42.748524,50.8 48.247786,53.975 42.748524,57.15 M 59.24631,50.8 v 6.35 m 5.49926,-6.35 v 6.35 m 2e-6,-6.35 -5.499262,3.175 5.499262,3.175 M 53.747048,50.8 59.24631,53.975 53.747048,57.15 M 70.244834,50.8 v 6.35 m 5.49926,-6.35 v 6.35 m 2e-6,-6.35 -5.499262,3.175 5.499262,3.175 M 64.745572,50.8 70.244834,53.975 64.745572,57.15 M 81.243358,50.8 v 6.35 m 5.49926,-6.35 v 6.35 m 2e-6,-6.35 -5.499262,3.175 5.499262,3.175 M 75.744096,50.8 81.243358,53.975 75.744096,57.15 M 92.241882,50.8 v 6.35 m 5.49926,-6.35 v 6.35 m 2e-6,-6.35 -5.499262,3.175 5.499262,3.175 M 86.74262,50.8 92.241882,53.975 86.74262,57.15 m 16.49779,-6.35 v 6.35 m 5.49926,-6.35 v 6.35 m 0,-6.35 -5.49926,3.175 5.49926,3.175 M 97.741144,50.8 103.24041,53.975 97.741144,57.15 M 114.23893,50.8 v 6.35 m 5.49926,-6.35 v 6.35 m 0,-6.35 -5.49926,3.175 5.49926,3.175 m -10.99852,-6.35 5.49926,3.175 -5.49926,3.175 m 16.49778,-6.35 v 6.35 m 5.49926,-6.35 v 6.35 m 1e-5,-6.35 -5.49927,3.175 5.49927,3.175 m -10.99853,-6.35 5.49926,3.175 -5.49926,3.175 m 16.49779,-6.35 v 6.35 m 5.49926,-6.35 v 6.35 m 0,-6.35 -5.49926,3.175 5.49926,3.175 m -10.99852,-6.35 5.49926,3.175 -5.49926,3.175 M 147.2345,50.8 v 6.35 m 5.49926,-6.35 v 6.35 m 0,-6.35 -5.49926,3.175 5.49926,3.175 m -10.99852,-6.35 5.49926,3.175 -5.49926,3.175 m 16.49779,-6.35 v 6.35 m 5.49926,-6.35 v 6.35 m 0,-6.35 -5.49926,3.175 5.49926,3.175 m -10.99853,-6.35 5.49927,3.175 -5.49927,3.175 m 16.49779,-6.35 v 6.35 m 5.49926,-6.35 v 6.35 m 0,-6.35 -5.49926,3.175 5.49926,3.175 m -10.99852,-6.35 5.49926,3.175 -5.49926,3.175 m 16.49778,-6.35 v 6.35 m 5.49926,-6.35 v 6.35 m 1e-5,-6.35 -5.49927,3.175 5.49927,3.175 m -10.99853,-6.35 5.49926,3.175 -5.49926,3.175 M 191.2286,50.8 v 6.35 m 5.49926,-6.35 v 6.35 m 0,-6.35 -5.49926,3.175 5.49926,3.175 m -10.99852,-6.35 5.49926,3.175 -5.49926,3.175 m -148.480078,0 v 6.35 m 5.49926,-6.35 v 6.35 m 2e-6,-6.35 -5.499262,3.175 5.499262,3.175 M 31.75,57.15 37.249262,60.325 31.75,63.5 m 16.497786,-6.35 v 6.35 m 5.49926,-6.35 v 6.35 m 2e-6,-6.35 -5.499262,3.175 5.499262,3.175 M 42.748524,57.15 48.247786,60.325 42.748524,63.5 M 59.24631,57.15 v 6.35 m 5.49926,-6.35 v 6.35 m 2e-6,-6.35 -5.499262,3.175 5.499262,3.175 M 53.747048,57.15 59.24631,60.325 53.747048,63.5 m 16.497786,-6.35 v 6.35 m 5.49926,-6.35 v 6.35 m 2e-6,-6.35 -5.499262,3.175 5.499262,3.175 m -10.998524,-6.35 5.499262,3.175 -5.499262,3.175 m 16.497786,-6.35 v 6.35 m 5.49926,-6.35 v 6.35 m 2e-6,-6.35 -5.499262,3.175 5.499262,3.175 m -10.998524,-6.35 5.499262,3.175 -5.499262,3.175 m 16.497786,-6.35 v 6.35 m 5.49926,-6.35 v 6.35 m 2e-6,-6.35 -5.499262,3.175 5.499262,3.175 M 86.74262,57.15 92.241882,60.325 86.74262,63.5 m 16.49779,-6.35 v 6.35 m 5.49926,-6.35 v 6.35 m 0,-6.35 -5.49926,3.175 5.49926,3.175 m -10.998526,-6.35 5.499266,3.175 -5.499266,3.175 m 16.497786,-6.35 v 6.35 m 5.49926,-6.35 v 6.35 m 0,-6.35 -5.49926,3.175 5.49926,3.175 m -10.99852,-6.35 5.49926,3.175 -5.49926,3.175 m 16.49778,-6.35 v 6.35 m 5.49926,-6.35 v 6.35 m 1e-5,-6.35 -5.49927,3.175 5.49927,3.175 m -10.99853,-6.35 5.49926,3.175 -5.49926,3.175 m 16.49779,-6.35 v 6.35 m 5.49926,-6.35 v 6.35 m 0,-6.35 -5.49926,3.175 5.49926,3.175 m -10.99852,-6.35 5.49926,3.175 -5.49926,3.175 m 16.49778,-6.35 v 6.35 m 5.49926,-6.35 v 6.35 m 0,-6.35 -5.49926,3.175 5.49926,3.175 m -10.99852,-6.35 5.49926,3.175 -5.49926,3.175 m 16.49779,-6.35 v 6.35 m 5.49926,-6.35 v 6.35 m 0,-6.35 -5.49926,3.175 5.49926,3.175 m -10.99853,-6.35 5.49927,3.175 -5.49927,3.175 m 16.49779,-6.35 v 6.35 m 5.49926,-6.35 v 6.35 m 0,-6.35 -5.49926,3.175 5.49926,3.175 m -10.99852,-6.35 5.49926,3.175 -5.49926,3.175 m 16.49778,-6.35 v 6.35 m 5.49926,-6.35 v 6.35 m 1e-5,-6.35 -5.49927,3.175 5.49927,3.175 m -10.99853,-6.35 5.49926,3.175 -5.49926,3.175 m 16.49779,-6.35 v 6.35 m 5.49926,-6.35 v 6.35 m 0,-6.35 -5.49926,3.175 5.49926,3.175 m -10.99852,-6.35 5.49926,3.175 -5.49926,3.175 m -148.480078,0 v 6.35 m 5.49926,-6.35 v 6.35 m 2e-6,-6.35 -5.499262,3.175 5.499262,3.175 M 31.75,63.5 37.249262,66.675 31.75,69.85 M 48.247786,63.5 v 6.35 m 5.49926,-6.35 v 6.35 m 2e-6,-6.35 -5.499262,3.175 5.499262,3.175 M 42.748524,63.5 48.247786,66.675 42.748524,69.85 M 59.24631,63.5 v 6.35 m 5.49926,-6.35 v 6.35 m 2e-6,-6.35 -5.499262,3.175 5.499262,3.175 M 53.747048,63.5 59.24631,66.675 53.747048,69.85 M 70.244834,63.5 v 6.35 m 5.49926,-6.35 v 6.35 m 2e-6,-6.35 -5.499262,3.175 5.499262,3.175 M 64.745572,63.5 70.244834,66.675 64.745572,69.85 M 81.243358,63.5 v 6.35 m 5.49926,-6.35 v 6.35 m 2e-6,-6.35 -5.499262,3.175 5.499262,3.175 M 75.744096,63.5 81.243358,66.675 75.744096,69.85 M 92.241882,63.5 v 6.35 m 5.49926,-6.35 v 6.35 m 2e-6,-6.35 -5.499262,3.175 5.499262,3.175 M 86.74262,63.5 92.241882,66.675 86.74262,69.85 m 16.49779,-6.35 v 6.35 m 5.49926,-6.35 v 6.35 m 0,-6.35 -5.49926,3.175 5.49926,3.175 M 97.741144,63.5 103.24041,66.675 97.741144,69.85 M 114.23893,63.5 v 6.35 m 5.49926,-6.35 v 6.35 m 0,-6.35 -5.49926,3.175 5.49926,3.175 m -10.99852,-6.35 5.49926,3.175 -5.49926,3.175 m 16.49778,-6.35 v 6.35 m 5.49926,-6.35 v 6.35 m 1e-5,-6.35 -5.49927,3.175 5.49927,3.175 m -10.99853,-6.35 5.49926,3.175 -5.49926,3.175 m 16.49779,-6.35 v 6.35 m 5.49926,-6.35 v 6.35 m 0,-6.35 -5.49926,3.175 5.49926,3.175 m -10.99852,-6.35 5.49926,3.175 -5.49926,3.175 M 147.2345,63.5 v 6.35 m 5.49926,-6.35 v 6.35 m 0,-6.35 -5.49926,3.175 5.49926,3.175 m -10.99852,-6.35 5.49926,3.175 -5.49926,3.175 m 16.49779,-6.35 v 6.35 m 5.49926,-6.35 v 6.35 m 0,-6.35 -5.49926,3.175 5.49926,3.175 m -10.99853,-6.35 5.49927,3.175 -5.49927,3.175 m 16.49779,-6.35 v 6.35 m 5.49926,-6.35 v 6.35 m 0,-6.35 -5.49926,3.175 5.49926,3.175 m -10.99852,-6.35 5.49926,3.175 -5.49926,3.175 m 16.49778,-6.35 v 6.35 m 5.49926,-6.35 v 6.35 m 1e-5,-6.35 -5.49927,3.175 5.49927,3.175 m -10.99853,-6.35 5.49926,3.175 -5.49926,3.175 M 191.2286,63.5 v 6.35 m 5.49926,-6.35 v 6.35 m 0,-6.35 -5.49926,3.175 5.49926,3.175 m -10.99852,-6.35 5.49926,3.175 -5.49926,3.175 m -148.480078,0 v 6.35 m 5.49926,-6.35 v 6.35 m 2e-6,-6.35 -5.499262,3.175 5.499262,3.175 M 31.75,69.85 37.249262,73.025 31.75,76.2 m 16.497786,-6.35 v 6.35 m 5.49926,-6.35 v 6.35 m 2e-6,-6.35 -5.499262,3.175 5.499262,3.175 M 42.748524,69.85 48.247786,73.025 42.748524,76.2 M 59.24631,69.85 v 6.35 m 5.49926,-6.35 v 6.35 m 2e-6,-6.35 -5.499262,3.175 5.499262,3.175 M 53.747048,69.85 59.24631,73.025 53.747048,76.2 m 16.497786,-6.35 v 6.35 m 5.49926,-6.35 v 6.35 m 2e-6,-6.35 -5.499262,3.175 5.499262,3.175 m -10.998524,-6.35 5.499262,3.175 -5.499262,3.175 m 16.497786,-6.35 v 6.35 m 5.49926,-6.35 v 6.35 m 2e-6,-6.35 -5.499262,3.175 5.499262,3.175 m -10.998524,-6.35 5.499262,3.175 -5.499262,3.175 m 16.497786,-6.35 v 6.35 m 5.49926,-6.35 v 6.35 m 2e-6,-6.35 -5.499262,3.175 5.499262,3.175 M 86.74262,69.85 92.241882,73.025 86.74262,76.2 m 16.49779,-6.35 v 6.35 m 5.49926,-6.35 v 6.35 m 0,-6.35 -5.49926,3.175 5.49926,3.175 m -10.998526,-6.35 5.499266,3.175 -5.499266,3.175 m 16.497786,-6.35 v 6.35 m 5.49926,-6.35 v 6.35 m 0,-6.35 -5.49926,3.175 5.49926,3.175 m -10.99852,-6.35 5.49926,3.175 -5.49926,3.175 m 16.49778,-6.35 v 6.35 m 5.49926,-6.35 v 6.35 m 1e-5,-6.35 -5.49927,3.175 5.49927,3.175 m -10.99853,-6.35 5.49926,3.175 -5.49926,3.175 m 16.49779,-6.35 v 6.35 m 5.49926,-6.35 v 6.35 m 0,-6.35 -5.49926,3.175 5.49926,3.175 m -10.99852,-6.35 5.49926,3.175 -5.49926,3.175 m 16.49778,-6.35 v 6.35 m 5.49926,-6.35 v 6.35 m 0,-6.35 -5.49926,3.175 5.49926,3.175 m -10.99852,-6.35 5.49926,3.175 -5.49926,3.175 m 16.49779,-6.35 v 6.35 m 5.49926,-6.35 v 6.35 m 0,-6.35 -5.49926,3.175 5.49926,3.175 m -10.99853,-6.35 5.49927,3.175 -5.49927,3.175 m 16.49779,-6.35 v 6.35 m 5.49926,-6.35 v 6.35 m 0,-6.35 -5.49926,3.175 5.49926,3.175 m -10.99852,-6.35 5.49926,3.175 -5.49926,3.175 m 16.49778,-6.35 v 6.35 m 5.49926,-6.35 v 6.35 m 1e-5,-6.35 -5.49927,3.175 5.49927,3.175 m -10.99853,-6.35 5.49926,3.175 -5.49926,3.175 m 16.49779,-6.35 v 6.35 m 5.49926,-6.35 v 6.35 m 0,-6.35 -5.49926,3.175 5.49926,3.175 m -10.99852,-6.35 5.49926,3.175 -5.49926,3.175 m -148.480078,0 v 6.35 m 5.49926,-6.35 v 6.35 m 2e-6,-6.35 -5.499262,3.175 5.499262,3.175 M 31.75,76.2 37.249262,79.375 31.75,82.55 M 48.247786,76.2 v 6.35 m 5.49926,-6.35 v 6.35 m 2e-6,-6.35 -5.499262,3.175 5.499262,3.175 M 42.748524,76.2 48.247786,79.375 42.748524,82.55 M 59.24631,76.2 v 6.35 m 5.49926,-6.35 v 6.35 m 2e-6,-6.35 -5.499262,3.175 5.499262,3.175 M 53.747048,76.2 59.24631,79.375 53.747048,82.55 M 70.244834,76.2 v 6.35 m 5.49926,-6.35 v 6.35 m 2e-6,-6.35 -5.499262,3.175 5.499262,3.175 M 64.745572,76.2 70.244834,79.375 64.745572,82.55 M 81.243358,76.2 v 6.35 m 5.49926,-6.35 v 6.35 m 2e-6,-6.35 -5.499262,3.175 5.499262,3.175 M 75.744096,76.2 81.243358,79.375 75.744096,82.55 M 92.241882,76.2 v 6.35 m 5.49926,-6.35 v 6.35 m 2e-6,-6.35 -5.499262,3.175 5.499262,3.175 M 86.74262,76.2 92.241882,79.375 86.74262,82.55 m 16.49779,-6.35 v 6.35 m 5.49926,-6.35 v 6.35 m 0,-6.35 -5.49926,3.175 5.49926,3.175 M 97.741144,76.2 103.24041,79.375 97.741144,82.55 M 114.23893,76.2 v 6.35 m 5.49926,-6.35 v 6.35 m 0,-6.35 -5.49926,3.175 5.49926,3.175 m -10.99852,-6.35 5.49926,3.175 -5.49926,3.175 m 16.49778,-6.35 v 6.35 m 5.49926,-6.35 v 6.35 m 1e-5,-6.35 -5.49927,3.175 5.49927,3.175 m -10.99853,-6.35 5.49926,3.175 -5.49926,3.175 m 16.49779,-6.35 v 6.35 m 5.49926,-6.35 v 6.35 m 0,-6.35 -5.49926,3.175 5.49926,3.175 m -10.99852,-6.35 5.49926,3.175 -5.49926,3.175 M 147.2345,76.2 v 6.35 m 5.49926,-6.35 v 6.35 m 0,-6.35 -5.49926,3.175 5.49926,3.175 m -10.99852,-6.35 5.49926,3.175 -5.49926,3.175 m 16.49779,-6.35 v 6.35 m 5.49926,-6.35 v 6.35 m 0,-6.35 -5.49926,3.175 5.49926,3.175 m -10.99853,-6.35 5.49927,3.175 -5.49927,3.175 m 16.49779,-6.35 v 6.35 m 5.49926,-6.35 v 6.35 m 0,-6.35 -5.49926,3.175 5.49926,3.175 m -10.99852,-6.35 5.49926,3.175 -5.49926,3.175 m 16.49778,-6.35 v 6.35 m 5.49926,-6.35 v 6.35 m 1e-5,-6.35 -5.49927,3.175 5.49927,3.175 m -10.99853,-6.35 5.49926,3.175 -5.49926,3.175 M 191.2286,76.2 v 6.35 m 5.49926,-6.35 v 6.35 m 0,-6.35 -5.49926,3.175 5.49926,3.175 m -10.99852,-6.35 5.49926,3.175 -5.49926,3.175 m -148.480078,0 v 6.35 m 5.49926,-6.35 v 6.35 m 2e-6,-6.35 -5.499262,3.175 5.499262,3.175 M 31.75,82.55 37.249262,85.725 31.75,88.9 m 16.497786,-6.35 v 6.35 m 5.49926,-6.35 v 6.35 m 2e-6,-6.35 -5.499262,3.175 5.499262,3.175 M 42.748524,82.55 48.247786,85.725 42.748524,88.9 M 59.24631,82.55 v 6.35 m 5.49926,-6.35 v 6.35 m 2e-6,-6.35 -5.499262,3.175 5.499262,3.175 M 53.747048,82.55 59.24631,85.725 53.747048,88.9 m 16.497786,-6.35 v 6.35 m 5.49926,-6.35 v 6.35 m 2e-6,-6.35 -5.499262,3.175 5.499262,3.175 m -10.998524,-6.35 5.499262,3.175 -5.499262,3.175 m 16.497786,-6.35 v 6.35 m 5.49926,-6.35 v 6.35 m 2e-6,-6.35 -5.499262,3.175 5.499262,3.175 m -10.998524,-6.35 5.499262,3.175 -5.499262,3.175 m 16.497786,-6.35 v 6.35 m 5.49926,-6.35 v 6.35 m 2e-6,-6.35 -5.499262,3.175 5.499262,3.175 M 86.74262,82.55 92.241882,85.725 86.74262,88.9 m 16.49779,-6.35 v 6.35 m 5.49926,-6.35 v 6.35 m 0,-6.35 -5.49926,3.175 5.49926,3.175 m -10.998526,-6.35 5.499266,3.175 -5.499266,3.175 m 16.497786,-6.35 v 6.35 m 5.49926,-6.35 v 6.35 m 0,-6.35 -5.49926,3.175 5.49926,3.175 m -10.99852,-6.35 5.49926,3.175 -5.49926,3.175 m 16.49778,-6.35 v 6.35 m 5.49926,-6.35 v 6.35 m 1e-5,-6.35 -5.49927,3.175 5.49927,3.175 m -10.99853,-6.35 5.49926,3.175 -5.49926,3.175 m 16.49779,-6.35 v 6.35 m 5.49926,-6.35 v 6.35 m 0,-6.35 -5.49926,3.175 5.49926,3.175 m -10.99852,-6.35 5.49926,3.175 -5.49926,3.175 m 16.49778,-6.35 v 6.35 m 5.49926,-6.35 v 6.35 m 0,-6.35 -5.49926,3.175 5.49926,3.175 m -10.99852,-6.35 5.49926,3.175 -5.49926,3.175 m 16.49779,-6.35 v 6.35 m 5.49926,-6.35 v 6.35 m 0,-6.35 -5.49926,3.175 5.49926,3.175 m -10.99853,-6.35 5.49927,3.175 -5.49927,3.175 m 16.49779,-6.35 v 6.35 m 5.49926,-6.35 v 6.35 m 0,-6.35 -5.49926,3.175 5.49926,3.175 m -10.99852,-6.35 5.49926,3.175 -5.49926,3.175 m 16.49778,-6.35 v 6.35 m 5.49926,-6.35 v 6.35 m 1e-5,-6.35 -5.49927,3.175 5.49927,3.175 m -10.99853,-6.35 5.49926,3.175 -5.49926,3.175 m 16.49779,-6.35 v 6.35 m 5.49926,-6.35 v 6.35 m 0,-6.35 -5.49926,3.175 5.49926,3.175 m -10.99852,-6.35 5.49926,3.175 -5.49926,3.175 m -148.480078,0 v 6.35 m 5.49926,-6.35 v 6.35 m 2e-6,-6.35 -5.499262,3.175 5.499262,3.175 M 31.75,88.9 37.249262,92.075 31.75,95.25 M 48.247786,88.9 v 6.35 m 5.49926,-6.35 v 6.35 m 2e-6,-6.35 -5.499262,3.175 5.499262,3.175 M 42.748524,88.9 48.247786,92.075 42.748524,95.25 M 59.24631,88.9 v 6.35 m 5.49926,-6.35 v 6.35 m 2e-6,-6.35 -5.499262,3.175 5.499262,3.175 M 53.747048,88.9 59.24631,92.075 53.747048,95.25 M 70.244834,88.9 v 6.35 m 5.49926,-6.35 v 6.35 m 2e-6,-6.35 -5.499262,3.175 5.499262,3.175 M 64.745572,88.9 70.244834,92.075 64.745572,95.25 M 81.243358,88.9 v 6.35 m 5.49926,-6.35 v 6.35 m 2e-6,-6.35 -5.499262,3.175 5.499262,3.175 M 75.744096,88.9 81.243358,92.075 75.744096,95.25 M 92.241882,88.9 v 6.35 m 5.49926,-6.35 v 6.35 m 2e-6,-6.35 -5.499262,3.175 5.499262,3.175 M 86.74262,88.9 92.241882,92.075 86.74262,95.25 m 16.49779,-6.35 v 6.35 m 5.49926,-6.35 v 6.35 m 0,-6.35 -5.49926,3.175 5.49926,3.175 M 97.741144,88.9 103.24041,92.075 97.741144,95.25 M 114.23893,88.9 v 6.35 m 5.49926,-6.35 v 6.35 m 0,-6.35 -5.49926,3.175 5.49926,3.175 m -10.99852,-6.35 5.49926,3.175 -5.49926,3.175 m 16.49778,-6.35 v 6.35 m 5.49926,-6.35 v 6.35 m 1e-5,-6.35 -5.49927,3.175 5.49927,3.175 m -10.99853,-6.35 5.49926,3.175 -5.49926,3.175 m 16.49779,-6.35 v 6.35 m 5.49926,-6.35 v 6.35 m 0,-6.35 -5.49926,3.175 5.49926,3.175 m -10.99852,-6.35 5.49926,3.175 -5.49926,3.175 M 147.2345,88.9 v 6.35 m 5.49926,-6.35 v 6.35 m 0,-6.35 -5.49926,3.175 5.49926,3.175 m -10.99852,-6.35 5.49926,3.175 -5.49926,3.175 m 16.49779,-6.35 v 6.35 m 5.49926,-6.35 v 6.35 m 0,-6.35 -5.49926,3.175 5.49926,3.175 m -10.99853,-6.35 5.49927,3.175 -5.49927,3.175 m 16.49779,-6.35 v 6.35 m 5.49926,-6.35 v 6.35 m 0,-6.35 -5.49926,3.175 5.49926,3.175 m -10.99852,-6.35 5.49926,3.175 -5.49926,3.175 m 16.49778,-6.35 v 6.35 m 5.49926,-6.35 v 6.35 m 1e-5,-6.35 -5.49927,3.175 5.49927,3.175 m -10.99853,-6.35 5.49926,3.175 -5.49926,3.175 M 191.2286,88.9 v 6.35 m 5.49926,-6.35 v 6.35 m 0,-6.35 -5.49926,3.175 5.49926,3.175 m -10.99852,-6.35 5.49926,3.175 -5.49926,3.175 m -148.480078,0 v 6.35 m 5.49926,-6.35 v 6.35 m 2e-6,-6.35 -5.499262,3.175 5.499262,3.175 M 31.75,95.25 37.249262,98.425 31.75,101.6 m 16.497786,-6.35 v 6.35 m 5.49926,-6.35 v 6.35 m 2e-6,-6.35 -5.499262,3.175 5.499262,3.175 m -10.998524,-6.35 5.499262,3.175 -5.499262,3.175 M 59.24631,95.25 v 6.35 m 5.49926,-6.35 v 6.35 m 2e-6,-6.35 -5.499262,3.175 5.499262,3.175 m -10.998524,-6.35 5.499262,3.175 -5.499262,3.175 m 16.497786,-6.35 v 6.35 m 5.49926,-6.35 v 6.35 m 2e-6,-6.35 -5.499262,3.175 5.499262,3.175 m -10.998524,-6.35 5.499262,3.175 -5.499262,3.175 m 16.497786,-6.35 v 6.35 m 5.49926,-6.35 v 6.35 m 2e-6,-6.35 -5.499262,3.175 5.499262,3.175 m -10.998524,-6.35 5.499262,3.175 -5.499262,3.175 m 16.497786,-6.35 v 6.35 m 5.49926,-6.35 v 6.35 m 2e-6,-6.35 -5.499262,3.175 5.499262,3.175 M 86.74262,95.25 92.241882,98.425 86.74262,101.6 m 16.49779,-6.35 v 6.35 m 5.49926,-6.35 v 6.35 m 0,-6.35 -5.49926,3.175 5.49926,3.175 m -10.998526,-6.35 5.499266,3.175 -5.499266,3.175 m 16.497786,-6.35 v 6.35 m 5.49926,-6.35 v 6.35 m 0,-6.35 -5.49926,3.175 5.49926,3.175 m -10.99852,-6.35 5.49926,3.175 -5.49926,3.175 m 16.49778,-6.35 v 6.35 m 5.49926,-6.35 v 6.35 m 1e-5,-6.35 -5.49927,3.175 5.49927,3.175 m -10.99853,-6.35 5.49926,3.175 -5.49926,3.175 m 16.49779,-6.35 v 6.35 m 5.49926,-6.35 v 6.35 m 0,-6.35 -5.49926,3.175 5.49926,3.175 m -10.99852,-6.35 5.49926,3.175 -5.49926,3.175 m 16.49778,-6.35 v 6.35 m 5.49926,-6.35 v 6.35 m 0,-6.35 -5.49926,3.175 5.49926,3.175 m -10.99852,-6.35 5.49926,3.175 -5.49926,3.175 m 16.49779,-6.35 v 6.35 m 5.49926,-6.35 v 6.35 m 0,-6.35 -5.49926,3.175 5.49926,3.175 m -10.99853,-6.35 5.49927,3.175 -5.49927,3.175 m 16.49779,-6.35 v 6.35 m 5.49926,-6.35 v 6.35 m 0,-6.35 -5.49926,3.175 5.49926,3.175 m -10.99852,-6.35 5.49926,3.175 -5.49926,3.175 m 16.49778,-6.35 v 6.35 m 5.49926,-6.35 v 6.35 m 1e-5,-6.35 -5.49927,3.175 5.49927,3.175 m -10.99853,-6.35 5.49926,3.175 -5.49926,3.175 m 16.49779,-6.35 v 6.35 m 5.49926,-6.35 v 6.35 m 0,-6.35 -5.49926,3.175 5.49926,3.175 m -10.99852,-6.35 5.49926,3.175 -5.49926,3.175 m -148.480078,0 v 6.35 m 5.49926,-6.35 v 6.35 m 2e-6,-6.35 -5.499262,3.175 5.499262,3.175 M 31.75,101.6 37.249262,104.775 31.75,107.95 m 16.497786,-6.35 v 6.35 m 5.49926,-6.35 v 6.35 m 2e-6,-6.35 -5.499262,3.175 5.499262,3.175 m -10.998524,-6.35 5.499262,3.175 -5.499262,3.175 M 59.24631,101.6 v 6.35 m 5.49926,-6.35 v 6.35 m 2e-6,-6.35 -5.499262,3.175 5.499262,3.175 m -10.998524,-6.35 5.499262,3.175 -5.499262,3.175 m 16.497786,-6.35 v 6.35 m 5.49926,-6.35 v 6.35 m 2e-6,-6.35 -5.499262,3.175 5.499262,3.175 m -10.998524,-6.35 5.499262,3.175 -5.499262,3.175 m 16.497786,-6.35 v 6.35 m 5.49926,-6.35 v 6.35 m 2e-6,-6.35 -5.499262,3.175 5.499262,3.175 m -10.998524,-6.35 5.499262,3.175 -5.499262,3.175 m 16.497786,-6.35 v 6.35 m 5.49926,-6.35 v 6.35 m 2e-6,-6.35 -5.499262,3.175 5.499262,3.175 m -10.998524,-6.35 5.499262,3.175 -5.499262,3.175 m 16.49779,-6.35 v 6.35 m 5.49926,-6.35 v 6.35 m 0,-6.35 -5.49926,3.175 5.49926,3.175 m -10.998526,-6.35 5.499266,3.175 -5.499266,3.175 m 16.497786,-6.35 v 6.35 m 5.49926,-6.35 v 6.35 m 0,-6.35 -5.49926,3.175 5.49926,3.175 m -10.99852,-6.35 5.49926,3.175 -5.49926,3.175 m 16.49778,-6.35 v 6.35 m 5.49926,-6.35 v 6.35 m 1e-5,-6.35 -5.49927,3.175 5.49927,3.175 m -10.99853,-6.35 5.49926,3.175 -5.49926,3.175 m 16.49779,-6.35 v 6.35 m 5.49926,-6.35 v 6.35 m 0,-6.35 -5.49926,3.175 5.49926,3.175 m -10.99852,-6.35 5.49926,3.175 -5.49926,3.175 m 16.49778,-6.35 v 6.35 m 5.49926,-6.35 v 6.35 m 0,-6.35 -5.49926,3.175 5.49926,3.175 m -10.99852,-6.35 5.49926,3.175 -5.49926,3.175 m 16.49779,-6.35 v 6.35 m 5.49926,-6.35 v 6.35 m 0,-6.35 -5.49926,3.175 5.49926,3.175 m -10.99853,-6.35 5.49927,3.175 -5.49927,3.175 m 16.49779,-6.35 v 6.35 m 5.49926,-6.35 v 6.35 m 0,-6.35 -5.49926,3.175 5.49926,3.175 m -10.99852,-6.35 5.49926,3.175 -5.49926,3.175 m 16.49778,-6.35 v 6.35 m 5.49926,-6.35 v 6.35 m 1e-5,-6.35 -5.49927,3.175 5.49927,3.175 m -10.99853,-6.35 5.49926,3.175 -5.49926,3.175 m 16.49779,-6.35 v 6.35 m 5.49926,-6.35 v 6.35 m 0,-6.35 -5.49926,3.175 5.49926,3.175 m -10.99852,-6.35 5.49926,3.175 -5.49926,3.175 m -148.480078,0 v 6.35 m 5.49926,-6.35 v 6.35 m 2e-6,-6.35 -5.499262,3.175 5.499262,3.175 M 31.75,107.95 37.249262,111.125 31.75,114.3 m 16.497786,-6.35 v 6.35 m 5.49926,-6.35 v 6.35 m 2e-6,-6.35 -5.499262,3.175 5.499262,3.175 m -10.998524,-6.35 5.499262,3.175 -5.499262,3.175 m 16.497786,-6.35 v 6.35 m 5.49926,-6.35 v 6.35 m 2e-6,-6.35 -5.499262,3.175 5.499262,3.175 m -10.998524,-6.35 5.499262,3.175 -5.499262,3.175 m 16.497786,-6.35 v 6.35 m 5.49926,-6.35 v 6.35 m 2e-6,-6.35 -5.499262,3.175 5.499262,3.175 m -10.998524,-6.35 5.499262,3.175 -5.499262,3.175 m 16.497786,-6.35 v 6.35 m 5.49926,-6.35 v 6.35 m 2e-6,-6.35 -5.499262,3.175 5.499262,3.175 m -10.998524,-6.35 5.499262,3.175 -5.499262,3.175 m 16.497786,-6.35 v 6.35 m 5.49926,-6.35 v 6.35 m 2e-6,-6.35 -5.499262,3.175 5.499262,3.175 m -10.998524,-6.35 5.499262,3.175 -5.499262,3.175 m 16.49779,-6.35 v 6.35 m 5.49926,-6.35 v 6.35 m 0,-6.35 -5.49926,3.175 5.49926,3.175 m -10.998526,-6.35 5.499266,3.175 -5.499266,3.175 m 16.497786,-6.35 v 6.35 m 5.49926,-6.35 v 6.35 m 0,-6.35 -5.49926,3.175 5.49926,3.175 m -10.99852,-6.35 5.49926,3.175 -5.49926,3.175 m 16.49778,-6.35 v 6.35 m 5.49926,-6.35 v 6.35 m 1e-5,-6.35 -5.49927,3.175 5.49927,3.175 m -10.99853,-6.35 5.49926,3.175 -5.49926,3.175 m 16.49779,-6.35 v 6.35 m 5.49926,-6.35 v 6.35 m 0,-6.35 -5.49926,3.175 5.49926,3.175 m -10.99852,-6.35 5.49926,3.175 -5.49926,3.175 m 16.49778,-6.35 v 6.35 m 5.49926,-6.35 v 6.35 m 0,-6.35 -5.49926,3.175 5.49926,3.175 m -10.99852,-6.35 5.49926,3.175 -5.49926,3.175 m 16.49779,-6.35 v 6.35 m 5.49926,-6.35 v 6.35 m 0,-6.35 -5.49926,3.175 5.49926,3.175 m -10.99853,-6.35 5.49927,3.175 -5.49927,3.175 m 16.49779,-6.35 v 6.35 m 5.49926,-6.35 v 6.35 m 0,-6.35 -5.49926,3.175 5.49926,3.175 m -10.99852,-6.35 5.49926,3.175 -5.49926,3.175 m 16.49778,-6.35 v 6.35 m 5.49926,-6.35 v 6.35 m 1e-5,-6.35 -5.49927,3.175 5.49927,3.175 m -10.99853,-6.35 5.49926,3.175 -5.49926,3.175 m 16.49779,-6.35 v 6.35 m 5.49926,-6.35 v 6.35 m 0,-6.35 -5.49926,3.175 5.49926,3.175 m -10.99852,-6.35 5.49926,3.175 -5.49926,3.175 m -148.480078,0 v 6.35 m 5.49926,-6.35 v 6.35 m 2e-6,-6.35 -5.499262,3.175 5.499262,3.175 M 31.75,114.3 37.249262,117.475 31.75,120.65 m 16.497786,-6.35 v 6.35 m 5.49926,-6.35 v 6.35 m 2e-6,-6.35 -5.499262,3.175 5.499262,3.175 m -10.998524,-6.35 5.499262,3.175 -5.499262,3.175 M 59.24631,114.3 v 6.35 m 5.49926,-6.35 v 6.35 m 2e-6,-6.35 -5.499262,3.175 5.499262,3.175 m -10.998524,-6.35 5.499262,3.175 -5.499262,3.175 m 16.497786,-6.35 v 6.35 m 5.49926,-6.35 v 6.35 m 2e-6,-6.35 -5.499262,3.175 5.499262,3.175 m -10.998524,-6.35 5.499262,3.175 -5.499262,3.175 m 16.497786,-6.35 v 6.35 m 5.49926,-6.35 v 6.35 m 2e-6,-6.35 -5.499262,3.175 5.499262,3.175 m -10.998524,-6.35 5.499262,3.175 -5.499262,3.175 m 16.497786,-6.35 v 6.35 m 5.49926,-6.35 v 6.35 m 2e-6,-6.35 -5.499262,3.175 5.499262,3.175 m -10.998524,-6.35 5.499262,3.175 -5.499262,3.175 m 16.49779,-6.35 v 6.35 m 5.49926,-6.35 v 6.35 m 0,-6.35 -5.49926,3.175 5.49926,3.175 m -10.998526,-6.35 5.499266,3.175 -5.499266,3.175 m 16.497786,-6.35 v 6.35 m 5.49926,-6.35 v 6.35 m 0,-6.35 -5.49926,3.175 5.49926,3.175 m -10.99852,-6.35 5.49926,3.175 -5.49926,3.175 m 16.49778,-6.35 v 6.35 m 5.49926,-6.35 v 6.35 m 1e-5,-6.35 -5.49927,3.175 5.49927,3.175 m -10.99853,-6.35 5.49926,3.175 -5.49926,3.175 m 16.49779,-6.35 v 6.35 m 5.49926,-6.35 v 6.35 m 0,-6.35 -5.49926,3.175 5.49926,3.175 m -10.99852,-6.35 5.49926,3.175 -5.49926,3.175 m 16.49778,-6.35 v 6.35 m 5.49926,-6.35 v 6.35 m 0,-6.35 -5.49926,3.175 5.49926,3.175 m -10.99852,-6.35 5.49926,3.175 -5.49926,3.175 m 16.49779,-6.35 v 6.35 m 5.49926,-6.35 v 6.35 m 0,-6.35 -5.49926,3.175 5.49926,3.175 m -10.99853,-6.35 5.49927,3.175 -5.49927,3.175 m 16.49779,-6.35 v 6.35 m 5.49926,-6.35 v 6.35 m 0,-6.35 -5.49926,3.175 5.49926,3.175 m -10.99852,-6.35 5.49926,3.175 -5.49926,3.175 m 16.49778,-6.35 v 6.35 m 5.49926,-6.35 v 6.35 m 1e-5,-6.35 -5.49927,3.175 5.49927,3.175 m -10.99853,-6.35 5.49926,3.175 -5.49926,3.175 m 16.49779,-6.35 v 6.35 m 5.49926,-6.35 v 6.35 m 0,-6.35 -5.49926,3.175 5.49926,3.175 m -10.99852,-6.35 5.49926,3.175 -5.49926,3.175 m -148.480078,0 V 127 m 5.49926,-6.35 V 127 m 2e-6,-6.35 -5.499262,3.175 5.499262,3.175 M 31.75,120.65 37.249262,123.825 31.75,127 m 16.497786,-6.35 V 127 m 5.49926,-6.35 V 127 m 2e-6,-6.35 -5.499262,3.175 5.499262,3.175 m -10.998524,-6.35 5.499262,3.175 L 42.748524,127 M 59.24631,120.65 V 127 m 5.49926,-6.35 V 127 m 2e-6,-6.35 -5.499262,3.175 5.499262,3.175 m -10.998524,-6.35 5.499262,3.175 -5.499262,3.175 m 16.497786,-6.35 V 127 m 5.49926,-6.35 V 127 m 2e-6,-6.35 -5.499262,3.175 5.499262,3.175 m -10.998524,-6.35 5.499262,3.175 -5.499262,3.175 m 16.497786,-6.35 V 127 m 5.49926,-6.35 V 127 m 2e-6,-6.35 -5.499262,3.175 5.499262,3.175 m -10.998524,-6.35 5.499262,3.175 -5.499262,3.175 m 16.497786,-6.35 V 127 m 5.49926,-6.35 V 127 m 2e-6,-6.35 -5.499262,3.175 5.499262,3.175 M 86.74262,120.65 92.241882,123.825 86.74262,127 m 16.49779,-6.35 V 127 m 5.49926,-6.35 V 127 m 0,-6.35 -5.49926,3.175 5.49926,3.175 m -10.998526,-6.35 5.499266,3.175 -5.499266,3.175 m 16.497786,-6.35 V 127 m 5.49926,-6.35 V 127 m 0,-6.35 -5.49926,3.175 5.49926,3.175 m -10.99852,-6.35 5.49926,3.175 -5.49926,3.175 m 16.49778,-6.35 V 127 m 5.49926,-6.35 V 127 m 1e-5,-6.35 -5.49927,3.175 5.49927,3.175 m -10.99853,-6.35 5.49926,3.175 -5.49926,3.175 m 16.49779,-6.35 V 127 m 5.49926,-6.35 V 127 m 0,-6.35 -5.49926,3.175 5.49926,3.175 m -10.99852,-6.35 5.49926,3.175 -5.49926,3.175 m 16.49778,-6.35 V 127 m 5.49926,-6.35 V 127 m 0,-6.35 -5.49926,3.175 5.49926,3.175 m -10.99852,-6.35 5.49926,3.175 -5.49926,3.175 m 16.49779,-6.35 V 127 m 5.49926,-6.35 V 127 m 0,-6.35 -5.49926,3.175 5.49926,3.175 m -10.99853,-6.35 5.49927,3.175 -5.49927,3.175 m 16.49779,-6.35 V 127 m 5.49926,-6.35 V 127 m 0,-6.35 -5.49926,3.175 5.49926,3.175 m -10.99852,-6.35 5.49926,3.175 -5.49926,3.175 m 16.49778,-6.35 V 127 m 5.49926,-6.35 V 127 m 1e-5,-6.35 -5.49927,3.175 5.49927,3.175 m -10.99853,-6.35 5.49926,3.175 -5.49926,3.175 m 16.49779,-6.35 V 127 m 5.49926,-6.35 V 127 m 0,-6.35 -5.49926,3.175 5.49926,3.175 m -10.99852,-6.35 5.49926,3.175 -5.49926,3.175 m -148.480078,0 v 6.35 m 5.49926,-6.35 v 6.35 m 2e-6,-6.35 -5.499262,3.175 5.499262,3.175 M 31.75,127 37.249262,130.175 31.75,133.35 M 48.247786,127 v 6.35 m 5.49926,-6.35 v 6.35 m 2e-6,-6.35 -5.499262,3.175 5.499262,3.175 M 42.748524,127 l 5.499262,3.175 -5.499262,3.175 M 59.24631,127 v 6.35 M 64.74557,127 v 6.35 m 2e-6,-6.35 -5.499262,3.175 5.499262,3.175 M 53.747048,127 l 5.499262,3.175 -5.499262,3.175 M 70.244834,127 v 6.35 m 5.49926,-6.35 v 6.35 m 2e-6,-6.35 -5.499262,3.175 5.499262,3.175 M 64.745572,127 l 5.499262,3.175 -5.499262,3.175 M 81.243358,127 v 6.35 m 5.49926,-6.35 v 6.35 m 2e-6,-6.35 -5.499262,3.175 5.499262,3.175 M 75.744096,127 l 5.499262,3.175 -5.499262,3.175 M 92.241882,127 v 6.35 m 5.49926,-6.35 v 6.35 m 2e-6,-6.35 -5.499262,3.175 5.499262,3.175 M 86.74262,127 l 5.499262,3.175 -5.499262,3.175 M 103.24041,127 v 6.35 m 5.49926,-6.35 v 6.35 m 0,-6.35 -5.49926,3.175 5.49926,3.175 M 97.741144,127 l 5.499266,3.175 -5.499266,3.175 M 114.23893,127 v 6.35 m 5.49926,-6.35 v 6.35 m 0,-6.35 -5.49926,3.175 5.49926,3.175 m -10.99852,-6.35 5.49926,3.175 -5.49926,3.175 M 125.23745,127 v 6.35 m 5.49926,-6.35 v 6.35 m 1e-5,-6.35 -5.49927,3.175 5.49927,3.175 m -10.99853,-6.35 5.49926,3.175 -5.49926,3.175 M 136.23598,127 v 6.35 m 5.49926,-6.35 v 6.35 m 0,-6.35 -5.49926,3.175 5.49926,3.175 m -10.99852,-6.35 5.49926,3.175 -5.49926,3.175 M 147.2345,127 v 6.35 m 5.49926,-6.35 v 6.35 m 0,-6.35 -5.49926,3.175 5.49926,3.175 m -10.99852,-6.35 5.49926,3.175 -5.49926,3.175 M 158.23303,127 v 6.35 m 5.49926,-6.35 v 6.35 m 0,-6.35 -5.49926,3.175 5.49926,3.175 m -10.99853,-6.35 5.49927,3.175 -5.49927,3.175 M 169.23155,127 v 6.35 m 5.49926,-6.35 v 6.35 m 0,-6.35 -5.49926,3.175 5.49926,3.175 m -10.99852,-6.35 5.49926,3.175 -5.49926,3.175 M 180.23007,127 v 6.35 m 5.49926,-6.35 v 6.35 m 1e-5,-6.35 -5.49927,3.175 5.49927,3.175 m -10.99853,-6.35 5.49926,3.175 -5.49926,3.175 M 191.2286,127 v 6.35 m 5.49926,-6.35 v 6.35 m 0,-6.35 -5.49926,3.175 5.49926,3.175 m -10.99852,-6.35 5.49926,3.175 -5.49926,3.175 m -148.480078,0 v 6.35 m 5.49926,-6.35 v 6.35 m 2e-6,-6.35 -5.499262,3.175 5.499262,3.175 M 31.75,133.35 37.249262,136.525 31.75,139.7 m 16.497786,-6.35 v 6.35 m 5.49926,-6.35 v 6.35 m 2e-6,-6.35 -5.499262,3.175 5.499262,3.175 m -10.998524,-6.35 5.499262,3.175 -5.499262,3.175 m 16.497786,-6.35 v 6.35 m 5.49926,-6.35 v 6.35 m 2e-6,-6.35 -5.499262,3.175 5.499262,3.175 m -10.998524,-6.35 5.499262,3.175 -5.499262,3.175 m 16.497786,-6.35 v 6.35 m 5.49926,-6.35 v 6.35 m 2e-6,-6.35 -5.499262,3.175 5.499262,3.175 m -10.998524,-6.35 5.499262,3.175 -5.499262,3.175 m 16.497786,-6.35 v 6.35 m 5.49926,-6.35 v 6.35 m 2e-6,-6.35 -5.499262,3.175 5.499262,3.175 m -10.998524,-6.35 5.499262,3.175 -5.499262,3.175 m 16.497786,-6.35 v 6.35 m 5.49926,-6.35 v 6.35 m 2e-6,-6.35 -5.499262,3.175 5.499262,3.175 m -10.998524,-6.35 5.499262,3.175 -5.499262,3.175 m 16.49779,-6.35 v 6.35 m 5.49926,-6.35 v 6.35 m 0,-6.35 -5.49926,3.175 5.49926,3.175 m -10.998526,-6.35 5.499266,3.175 -5.499266,3.175 m 16.497786,-6.35 v 6.35 m 5.49926,-6.35 v 6.35 m 0,-6.35 -5.49926,3.175 5.49926,3.175 m -10.99852,-6.35 5.49926,3.175 -5.49926,3.175 m 16.49778,-6.35 v 6.35 m 5.49926,-6.35 v 6.35 m 1e-5,-6.35 -5.49927,3.175 5.49927,3.175 m -10.99853,-6.35 5.49926,3.175 -5.49926,3.175 m 16.49779,-6.35 v 6.35 m 5.49926,-6.35 v 6.35 m 0,-6.35 -5.49926,3.175 5.49926,3.175 m -10.99852,-6.35 5.49926,3.175 -5.49926,3.175 m 16.49778,-6.35 v 6.35 m 5.49926,-6.35 v 6.35 m 0,-6.35 -5.49926,3.175 5.49926,3.175 m -10.99852,-6.35 5.49926,3.175 -5.49926,3.175 m 16.49779,-6.35 v 6.35 m 5.49926,-6.35 v 6.35 m 0,-6.35 -5.49926,3.175 5.49926,3.175 m -10.99853,-6.35 5.49927,3.175 -5.49927,3.175 m 16.49779,-6.35 v 6.35 m 5.49926,-6.35 v 6.35 m 0,-6.35 -5.49926,3.175 5.49926,3.175 m -10.99852,-6.35 5.49926,3.175 -5.49926,3.175 m 16.49778,-6.35 v 6.35 m 5.49926,-6.35 v 6.35 m 1e-5,-6.35 -5.49927,3.175 5.49927,3.175 m -10.99853,-6.35 5.49926,3.175 -5.49926,3.175 m 16.49779,-6.35 v 6.35 m 5.49926,-6.35 v 6.35 m 0,-6.35 -5.49926,3.175 5.49926,3.175 m -10.99852,-6.35 5.49926,3.175 -5.49926,3.175 m -148.480078,0 v 6.35 m 5.49926,-6.35 v 6.35 m 2e-6,-6.35 -5.499262,3.175 5.499262,3.175 M 31.75,139.7 37.249262,142.875 31.75,146.05 m 16.497786,-6.35 v 6.35 m 5.49926,-6.35 v 6.35 m 2e-6,-6.35 -5.499262,3.175 5.499262,3.175 m -10.998524,-6.35 5.499262,3.175 -5.499262,3.175 M 59.24631,139.7 v 6.35 m 5.49926,-6.35 v 6.35 m 2e-6,-6.35 -5.499262,3.175 5.499262,3.175 m -10.998524,-6.35 5.499262,3.175 -5.499262,3.175 m 16.497786,-6.35 v 6.35 m 5.49926,-6.35 v 6.35 m 2e-6,-6.35 -5.499262,3.175 5.499262,3.175 m -10.998524,-6.35 5.499262,3.175 -5.499262,3.175 m 16.497786,-6.35 v 6.35 m 5.49926,-6.35 v 6.35 m 2e-6,-6.35 -5.499262,3.175 5.499262,3.175 m -10.998524,-6.35 5.499262,3.175 -5.499262,3.175 m 16.497786,-6.35 v 6.35 m 5.49926,-6.35 v 6.35 m 2e-6,-6.35 -5.499262,3.175 5.499262,3.175 m -10.998524,-6.35 5.499262,3.175 -5.499262,3.175 m 16.49779,-6.35 v 6.35 m 5.49926,-6.35 v 6.35 m 0,-6.35 -5.49926,3.175 5.49926,3.175 m -10.998526,-6.35 5.499266,3.175 -5.499266,3.175 m 16.497786,-6.35 v 6.35 m 5.49926,-6.35 v 6.35 m 0,-6.35 -5.49926,3.175 5.49926,3.175 m -10.99852,-6.35 5.49926,3.175 -5.49926,3.175 m 16.49778,-6.35 v 6.35 m 5.49926,-6.35 v 6.35 m 1e-5,-6.35 -5.49927,3.175 5.49927,3.175 m -10.99853,-6.35 5.49926,3.175 -5.49926,3.175 m 16.49779,-6.35 v 6.35 m 5.49926,-6.35 v 6.35 m 0,-6.35 -5.49926,3.175 5.49926,3.175 m -10.99852,-6.35 5.49926,3.175 -5.49926,3.175 m 16.49778,-6.35 v 6.35 m 5.49926,-6.35 v 6.35 m 0,-6.35 -5.49926,3.175 5.49926,3.175 m -10.99852,-6.35 5.49926,3.175 -5.49926,3.175 m 16.49779,-6.35 v 6.35 m 5.49926,-6.35 v 6.35 m 0,-6.35 -5.49926,3.175 5.49926,3.175 m -10.99853,-6.35 5.49927,3.175 -5.49927,3.175 m 16.49779,-6.35 v 6.35 m 5.49926,-6.35 v 6.35 m 0,-6.35 -5.49926,3.175 5.49926,3.175 m -10.99852,-6.35 5.49926,3.175 -5.49926,3.175 m 16.49778,-6.35 v 6.35 m 5.49926,-6.35 v 6.35 m 1e-5,-6.35 -5.49927,3.175 5.49927,3.175 m -10.99853,-6.35 5.49926,3.175 -5.49926,3.175 m 16.49779,-6.35 v 6.35 m 5.49926,-6.35 v 6.35 m 0,-6.35 -5.49926,3.175 5.49926,3.175 m -10.99852,-6.35 5.49926,3.175 -5.49926,3.175 m -148.480078,0 v 6.35 m 5.49926,-6.35 v 6.35 m 2e-6,-6.35 -5.499262,3.175 5.499262,3.175 M 31.75,146.05 37.249262,149.225 31.75,152.4 m 16.497786,-6.35 v 6.35 m 5.49926,-6.35 v 6.35 m 2e-6,-6.35 -5.499262,3.175 5.499262,3.175 m -10.998524,-6.35 5.499262,3.175 -5.499262,3.175 m 16.497786,-6.35 v 6.35 m 5.49926,-6.35 v 6.35 m 2e-6,-6.35 -5.499262,3.175 5.499262,3.175 m -10.998524,-6.35 5.499262,3.175 -5.499262,3.175 m 16.497786,-6.35 v 6.35 m 5.49926,-6.35 v 6.35 m 2e-6,-6.35 -5.499262,3.175 5.499262,3.175 m -10.998524,-6.35 5.499262,3.175 -5.499262,3.175 m 16.497786,-6.35 v 6.35 m 5.49926,-6.35 v 6.35 m 2e-6,-6.35 -5.499262,3.175 5.499262,3.175 m -10.998524,-6.35 5.499262,3.175 -5.499262,3.175 m 16.497786,-6.35 v 6.35 m 5.49926,-6.35 v 6.35 m 2e-6,-6.35 -5.499262,3.175 5.499262,3.175 m -10.998524,-6.35 5.499262,3.175 -5.499262,3.175 m 16.49779,-6.35 v 6.35 m 5.49926,-6.35 v 6.35 m 0,-6.35 -5.49926,3.175 5.49926,3.175 m -10.998526,-6.35 5.499266,3.175 -5.499266,3.175 m 16.497786,-6.35 v 6.35 m 5.49926,-6.35 v 6.35 m 0,-6.35 -5.49926,3.175 5.49926,3.175 m -10.99852,-6.35 5.49926,3.175 -5.49926,3.175 m 16.49778,-6.35 v 6.35 m 5.49926,-6.35 v 6.35 m 1e-5,-6.35 -5.49927,3.175 5.49927,3.175 m -10.99853,-6.35 5.49926,3.175 -5.49926,3.175 m 16.49779,-6.35 v 6.35 m 5.49926,-6.35 v 6.35 m 0,-6.35 -5.49926,3.175 5.49926,3.175 m -10.99852,-6.35 5.49926,3.175 -5.49926,3.175 m 16.49778,-6.35 v 6.35 m 5.49926,-6.35 v 6.35 m 0,-6.35 -5.49926,3.175 5.49926,3.175 m -10.99852,-6.35 5.49926,3.175 -5.49926,3.175 m 16.49779,-6.35 v 6.35 m 5.49926,-6.35 v 6.35 m 0,-6.35 -5.49926,3.175 5.49926,3.175 m -10.99853,-6.35 5.49927,3.175 -5.49927,3.175 m 16.49779,-6.35 v 6.35 m 5.49926,-6.35 v 6.35 m 0,-6.35 -5.49926,3.175 5.49926,3.175 m -10.99852,-6.35 5.49926,3.175 -5.49926,3.175 m 16.49778,-6.35 v 6.35 m 5.49926,-6.35 v 6.35 m 1e-5,-6.35 -5.49927,3.175 5.49927,3.175 m -10.99853,-6.35 5.49926,3.175 -5.49926,3.175 m 16.49779,-6.35 v 6.35 m 5.49926,-6.35 v 6.35 m 0,-6.35 -5.49926,3.175 5.49926,3.175 m -10.99852,-6.35 5.49926,3.175 -5.49926,3.175 m -148.480078,0 v 6.35 m 5.49926,-6.35 v 6.35 m 2e-6,-6.35 -5.499262,3.175 5.499262,3.175 M 31.75,152.4 37.249262,155.575 31.75,158.75 m 16.497786,-6.35 v 6.35 m 5.49926,-6.35 v 6.35 m 2e-6,-6.35 -5.499262,3.175 5.499262,3.175 m -10.998524,-6.35 5.499262,3.175 -5.499262,3.175 M 59.24631,152.4 v 6.35 m 5.49926,-6.35 v 6.35 m 2e-6,-6.35 -5.499262,3.175 5.499262,3.175 m -10.998524,-6.35 5.499262,3.175 -5.499262,3.175 m 16.497786,-6.35 v 6.35 m 5.49926,-6.35 v 6.35 m 2e-6,-6.35 -5.499262,3.175 5.499262,3.175 m -10.998524,-6.35 5.499262,3.175 -5.499262,3.175 m 16.497786,-6.35 v 6.35 m 5.49926,-6.35 v 6.35 m 2e-6,-6.35 -5.499262,3.175 5.499262,3.175 m -10.998524,-6.35 5.499262,3.175 -5.499262,3.175 m 16.497786,-6.35 v 6.35 m 5.49926,-6.35 v 6.35 m 2e-6,-6.35 -5.499262,3.175 5.499262,3.175 m -10.998524,-6.35 5.499262,3.175 -5.499262,3.175 m 16.49779,-6.35 v 6.35 m 5.49926,-6.35 v 6.35 m 0,-6.35 -5.49926,3.175 5.49926,3.175 m -10.998526,-6.35 5.499266,3.175 -5.499266,3.175 m 16.497786,-6.35 v 6.35 m 5.49926,-6.35 v 6.35 m 0,-6.35 -5.49926,3.175 5.49926,3.175 m -10.99852,-6.35 5.49926,3.175 -5.49926,3.175 m 16.49778,-6.35 v 6.35 m 5.49926,-6.35 v 6.35 m 1e-5,-6.35 -5.49927,3.175 5.49927,3.175 m -10.99853,-6.35 5.49926,3.175 -5.49926,3.175 m 16.49779,-6.35 v 6.35 m 5.49926,-6.35 v 6.35 m 0,-6.35 -5.49926,3.175 5.49926,3.175 m -10.99852,-6.35 5.49926,3.175 -5.49926,3.175 m 16.49778,-6.35 v 6.35 m 5.49926,-6.35 v 6.35 m 0,-6.35 -5.49926,3.175 5.49926,3.175 m -10.99852,-6.35 5.49926,3.175 -5.49926,3.175 m 16.49779,-6.35 v 6.35 m 5.49926,-6.35 v 6.35 m 0,-6.35 -5.49926,3.175 5.49926,3.175 m -10.99853,-6.35 5.49927,3.175 -5.49927,3.175 m 16.49779,-6.35 v 6.35 m 5.49926,-6.35 v 6.35 m 0,-6.35 -5.49926,3.175 5.49926,3.175 m -10.99852,-6.35 5.49926,3.175 -5.49926,3.175 m 16.49778,-6.35 v 6.35 m 5.49926,-6.35 v 6.35 m 1e-5,-6.35 -5.49927,3.175 5.49927,3.175 m -10.99853,-6.35 5.49926,3.175 -5.49926,3.175 m 16.49779,-6.35 v 6.35 m 5.49926,-6.35 v 6.35 m 0,-6.35 -5.49926,3.175 5.49926,3.175 m -10.99852,-6.35 5.49926,3.175 -5.49926,3.175 m -148.480078,0 v 6.35 m 5.49926,-6.35 v 6.35 m 2e-6,-6.35 -5.499262,3.175 5.499262,3.175 M 31.75,158.75 37.249262,161.925 31.75,165.1 m 16.497786,-6.35 v 6.35 m 5.49926,-6.35 v 6.35 m 2e-6,-6.35 -5.499262,3.175 5.499262,3.175 m -10.998524,-6.35 5.499262,3.175 -5.499262,3.175 m 16.497786,-6.35 v 6.35 m 5.49926,-6.35 v 6.35 m 2e-6,-6.35 -5.499262,3.175 5.499262,3.175 m -10.998524,-6.35 5.499262,3.175 -5.499262,3.175 m 16.497786,-6.35 v 6.35 m 5.49926,-6.35 v 6.35 m 2e-6,-6.35 -5.499262,3.175 5.499262,3.175 m -10.998524,-6.35 5.499262,3.175 -5.499262,3.175 m 16.497786,-6.35 v 6.35 m 5.49926,-6.35 v 6.35 m 2e-6,-6.35 -5.499262,3.175 5.499262,3.175 m -10.998524,-6.35 5.499262,3.175 -5.499262,3.175 m 16.497786,-6.35 v 6.35 m 5.49926,-6.35 v 6.35 m 2e-6,-6.35 -5.499262,3.175 5.499262,3.175 m -10.998524,-6.35 5.499262,3.175 -5.499262,3.175 m 16.49779,-6.35 v 6.35 m 5.49926,-6.35 v 6.35 m 0,-6.35 -5.49926,3.175 5.49926,3.175 m -10.998526,-6.35 5.499266,3.175 -5.499266,3.175 m 16.497786,-6.35 v 6.35 m 5.49926,-6.35 v 6.35 m 0,-6.35 -5.49926,3.175 5.49926,3.175 m -10.99852,-6.35 5.49926,3.175 -5.49926,3.175 m 16.49778,-6.35 v 6.35 m 5.49926,-6.35 v 6.35 m 1e-5,-6.35 -5.49927,3.175 5.49927,3.175 m -10.99853,-6.35 5.49926,3.175 -5.49926,3.175 m 16.49779,-6.35 v 6.35 m 5.49926,-6.35 v 6.35 m 0,-6.35 -5.49926,3.175 5.49926,3.175 m -10.99852,-6.35 5.49926,3.175 -5.49926,3.175 m 16.49778,-6.35 v 6.35 m 5.49926,-6.35 v 6.35 m 0,-6.35 -5.49926,3.175 5.49926,3.175 m -10.99852,-6.35 5.49926,3.175 -5.49926,3.175 m 16.49779,-6.35 v 6.35 m 5.49926,-6.35 v 6.35 m 0,-6.35 -5.49926,3.175 5.49926,3.175 m -10.99853,-6.35 5.49927,3.175 -5.49927,3.175 m 16.49779,-6.35 v 6.35 m 5.49926,-6.35 v 6.35 m 0,-6.35 -5.49926,3.175 5.49926,3.175 m -10.99852,-6.35 5.49926,3.175 -5.49926,3.175 m 16.49778,-6.35 v 6.35 m 5.49926,-6.35 v 6.35 m 1e-5,-6.35 -5.49927,3.175 5.49927,3.175 m -10.99853,-6.35 5.49926,3.175 -5.49926,3.175 m 16.49779,-6.35 v 6.35 m 5.49926,-6.35 v 6.35 m 0,-6.35 -5.49926,3.175 5.49926,3.175 m -10.99852,-6.35 5.49926,3.175 -5.49926,3.175 m -148.480078,0 v 6.35 m 5.49926,-6.35 v 6.35 m 2e-6,-6.35 -5.499262,3.175 5.499262,3.175 M 31.75,165.1 37.249262,168.275 31.75,171.45 m 16.497786,-6.35 v 6.35 m 5.49926,-6.35 v 6.35 m 2e-6,-6.35 -5.499262,3.175 5.499262,3.175 m -10.998524,-6.35 5.499262,3.175 -5.499262,3.175 M 59.24631,165.1 v 6.35 m 5.49926,-6.35 v 6.35 m 2e-6,-6.35 -5.499262,3.175 5.499262,3.175 m -10.998524,-6.35 5.499262,3.175 -5.499262,3.175 m 16.497786,-6.35 v 6.35 m 5.49926,-6.35 v 6.35 m 2e-6,-6.35 -5.499262,3.175 5.499262,3.175 m -10.998524,-6.35 5.499262,3.175 -5.499262,3.175 m 16.497786,-6.35 v 6.35 m 5.49926,-6.35 v 6.35 m 2e-6,-6.35 -5.499262,3.175 5.499262,3.175 m -10.998524,-6.35 5.499262,3.175 -5.499262,3.175 m 16.497786,-6.35 v 6.35 m 5.49926,-6.35 v 6.35 m 2e-6,-6.35 -5.499262,3.175 5.499262,3.175 m -10.998524,-6.35 5.499262,3.175 -5.499262,3.175 m 16.49779,-6.35 v 6.35 m 5.49926,-6.35 v 6.35 m 0,-6.35 -5.49926,3.175 5.49926,3.175 m -10.998526,-6.35 5.499266,3.175 -5.499266,3.175 m 16.497786,-6.35 v 6.35 m 5.49926,-6.35 v 6.35 m 0,-6.35 -5.49926,3.175 5.49926,3.175 m -10.99852,-6.35 5.49926,3.175 -5.49926,3.175 m 16.49778,-6.35 v 6.35 m 5.49926,-6.35 v 6.35 m 1e-5,-6.35 -5.49927,3.175 5.49927,3.175 m -10.99853,-6.35 5.49926,3.175 -5.49926,3.175 m 16.49779,-6.35 v 6.35 m 5.49926,-6.35 v 6.35 m 0,-6.35 -5.49926,3.175 5.49926,3.175 m -10.99852,-6.35 5.49926,3.175 -5.49926,3.175 m 16.49778,-6.35 v 6.35 m 5.49926,-6.35 v 6.35 m 0,-6.35 -5.49926,3.175 5.49926,3.175 m -10.99852,-6.35 5.49926,3.175 -5.49926,3.175 m 16.49779,-6.35 v 6.35 m 5.49926,-6.35 v 6.35 m 0,-6.35 -5.49926,3.175 5.49926,3.175 m -10.99853,-6.35 5.49927,3.175 -5.49927,3.175 m 16.49779,-6.35 v 6.35 m 5.49926,-6.35 v 6.35 m 0,-6.35 -5.49926,3.175 5.49926,3.175 m -10.99852,-6.35 5.49926,3.175 -5.49926,3.175 m 16.49778,-6.35 v 6.35 m 5.49926,-6.35 v 6.35 m 1e-5,-6.35 -5.49927,3.175 5.49927,3.175 m -10.99853,-6.35 5.49926,3.175 -5.49926,3.175 m 16.49779,-6.35 v 6.35 m 5.49926,-6.35 v 6.35 m 0,-6.35 -5.49926,3.175 5.49926,3.175 m -10.99852,-6.35 5.49926,3.175 -5.49926,3.175 m -148.480078,0 v 6.35 m 5.49926,-6.35 v 6.35 m 2e-6,-6.35 -5.499262,3.175 5.499262,3.175 M 31.75,171.45 37.249262,174.625 31.75,177.8 m 16.497786,-6.35 v 6.35 m 5.49926,-6.35 v 6.35 m 2e-6,-6.35 -5.499262,3.175 5.499262,3.175 m -10.998524,-6.35 5.499262,3.175 -5.499262,3.175 m 16.497786,-6.35 v 6.35 m 5.49926,-6.35 v 6.35 m 2e-6,-6.35 -5.499262,3.175 5.499262,3.175 m -10.998524,-6.35 5.499262,3.175 -5.499262,3.175 m 16.497786,-6.35 v 6.35 m 5.49926,-6.35 v 6.35 m 2e-6,-6.35 -5.499262,3.175 5.499262,3.175 m -10.998524,-6.35 5.499262,3.175 -5.499262,3.175 m 16.497786,-6.35 v 6.35 m 5.49926,-6.35 v 6.35 m 2e-6,-6.35 -5.499262,3.175 5.499262,3.175 m -10.998524,-6.35 5.499262,3.175 -5.499262,3.175 m 16.497786,-6.35 v 6.35 m 5.49926,-6.35 v 6.35 m 2e-6,-6.35 -5.499262,3.175 5.499262,3.175 m -10.998524,-6.35 5.499262,3.175 -5.499262,3.175 m 16.49779,-6.35 v 6.35 m 5.49926,-6.35 v 6.35 m 0,-6.35 -5.49926,3.175 5.49926,3.175 m -10.998526,-6.35 5.499266,3.175 -5.499266,3.175 m 16.497786,-6.35 v 6.35 m 5.49926,-6.35 v 6.35 m 0,-6.35 -5.49926,3.175 5.49926,3.175 m -10.99852,-6.35 5.49926,3.175 -5.49926,3.175 m 16.49778,-6.35 v 6.35 m 5.49926,-6.35 v 6.35 m 1e-5,-6.35 -5.49927,3.175 5.49927,3.175 m -10.99853,-6.35 5.49926,3.175 -5.49926,3.175 m 16.49779,-6.35 v 6.35 m 5.49926,-6.35 v 6.35 m 0,-6.35 -5.49926,3.175 5.49926,3.175 m -10.99852,-6.35 5.49926,3.175 -5.49926,3.175 m 16.49778,-6.35 v 6.35 m 5.49926,-6.35 v 6.35 m 0,-6.35 -5.49926,3.175 5.49926,3.175 m -10.99852,-6.35 5.49926,3.175 -5.49926,3.175 m 16.49779,-6.35 v 6.35 m 5.49926,-6.35 v 6.35 m 0,-6.35 -5.49926,3.175 5.49926,3.175 m -10.99853,-6.35 5.49927,3.175 -5.49927,3.175 m 16.49779,-6.35 v 6.35 m 5.49926,-6.35 v 6.35 m 0,-6.35 -5.49926,3.175 5.49926,3.175 m -10.99852,-6.35 5.49926,3.175 -5.49926,3.175 m 16.49778,-6.35 v 6.35 m 5.49926,-6.35 v 6.35 m 1e-5,-6.35 -5.49927,3.175 5.49927,3.175 m -10.99853,-6.35 5.49926,3.175 -5.49926,3.175 m 16.49779,-6.35 v 6.35 m 5.49926,-6.35 v 6.35 m 0,-6.35 -5.49926,3.175 5.49926,3.175 m -10.99852,-6.35 5.49926,3.175 -5.49926,3.175 m -148.480078,0 v 6.35 m 5.49926,-6.35 v 6.35 m 2e-6,-6.35 -5.499262,3.175 5.499262,3.175 M 31.75,177.8 37.249262,180.975 31.75,184.15 m 16.497786,-6.35 v 6.35 m 5.49926,-6.35 v 6.35 m 2e-6,-6.35 -5.499262,3.175 5.499262,3.175 m -10.998524,-6.35 5.499262,3.175 -5.499262,3.175 M 59.24631,177.8 v 6.35 m 5.49926,-6.35 v 6.35 m 2e-6,-6.35 -5.499262,3.175 5.499262,3.175 m -10.998524,-6.35 5.499262,3.175 -5.499262,3.175 m 16.497786,-6.35 v 6.35 m 5.49926,-6.35 v 6.35 m 2e-6,-6.35 -5.499262,3.175 5.499262,3.175 m -10.998524,-6.35 5.499262,3.175 -5.499262,3.175 m 16.497786,-6.35 v 6.35 m 5.49926,-6.35 v 6.35 m 2e-6,-6.35 -5.499262,3.175 5.499262,3.175 m -10.998524,-6.35 5.499262,3.175 -5.499262,3.175 m 16.497786,-6.35 v 6.35 m 5.49926,-6.35 v 6.35 m 2e-6,-6.35 -5.499262,3.175 5.499262,3.175 m -10.998524,-6.35 5.499262,3.175 -5.499262,3.175 m 16.49779,-6.35 v 6.35 m 5.49926,-6.35 v 6.35 m 0,-6.35 -5.49926,3.175 5.49926,3.175 m -10.998526,-6.35 5.499266,3.175 -5.499266,3.175 m 16.497786,-6.35 v 6.35 m 5.49926,-6.35 v 6.35 m 0,-6.35 -5.49926,3.175 5.49926,3.175 m -10.99852,-6.35 5.49926,3.175 -5.49926,3.175 m 16.49778,-6.35 v 6.35 m 5.49926,-6.35 v 6.35 m 1e-5,-6.35 -5.49927,3.175 5.49927,3.175 m -10.99853,-6.35 5.49926,3.175 -5.49926,3.175 m 16.49779,-6.35 v 6.35 m 5.49926,-6.35 v 6.35 m 0,-6.35 -5.49926,3.175 5.49926,3.175 m -10.99852,-6.35 5.49926,3.175 -5.49926,3.175 m 16.49778,-6.35 v 6.35 m 5.49926,-6.35 v 6.35 m 0,-6.35 -5.49926,3.175 5.49926,3.175 m -10.99852,-6.35 5.49926,3.175 -5.49926,3.175 m 16.49779,-6.35 v 6.35 m 5.49926,-6.35 v 6.35 m 0,-6.35 -5.49926,3.175 5.49926,3.175 m -10.99853,-6.35 5.49927,3.175 -5.49927,3.175 m 16.49779,-6.35 v 6.35 m 5.49926,-6.35 v 6.35 m 0,-6.35 -5.49926,3.175 5.49926,3.175 m -10.99852,-6.35 5.49926,3.175 -5.49926,3.175 m 16.49778,-6.35 v 6.35 m 5.49926,-6.35 v 6.35 m 1e-5,-6.35 -5.49927,3.175 5.49927,3.175 m -10.99853,-6.35 5.49926,3.175 -5.49926,3.175 m 16.49779,-6.35 v 6.35 m 5.49926,-6.35 v 6.35 m 0,-6.35 -5.49926,3.175 5.49926,3.175 m -10.99852,-6.35 5.49926,3.175 -5.49926,3.175 m -148.480078,0 v 6.35 m 5.49926,-6.35 v 6.35 m 2e-6,-6.35 -5.499262,3.175 5.499262,3.175 M 31.75,184.15 37.249262,187.325 31.75,190.5 m 16.497786,-6.35 v 6.35 m 5.49926,-6.35 v 6.35 m 2e-6,-6.35 -5.499262,3.175 5.499262,3.175 m -10.998524,-6.35 5.499262,3.175 -5.499262,3.175 m 16.497786,-6.35 v 6.35 m 5.49926,-6.35 v 6.35 m 2e-6,-6.35 -5.499262,3.175 5.499262,3.175 m -10.998524,-6.35 5.499262,3.175 -5.499262,3.175 m 16.497786,-6.35 v 6.35 m 5.49926,-6.35 v 6.35 m 2e-6,-6.35 -5.499262,3.175 5.499262,3.175 m -10.998524,-6.35 5.499262,3.175 -5.499262,3.175 m 16.497786,-6.35 v 6.35 m 5.49926,-6.35 v 6.35 m 2e-6,-6.35 -5.499262,3.175 5.499262,3.175 m -10.998524,-6.35 5.499262,3.175 -5.499262,3.175 m 16.497786,-6.35 v 6.35 m 5.49926,-6.35 v 6.35 m 2e-6,-6.35 -5.499262,3.175 5.499262,3.175 m -10.998524,-6.35 5.499262,3.175 -5.499262,3.175 m 16.49779,-6.35 v 6.35 m 5.49926,-6.35 v 6.35 m 0,-6.35 -5.49926,3.175 5.49926,3.175 m -10.998526,-6.35 5.499266,3.175 -5.499266,3.175 m 16.497786,-6.35 v 6.35 m 5.49926,-6.35 v 6.35 m 0,-6.35 -5.49926,3.175 5.49926,3.175 m -10.99852,-6.35 5.49926,3.175 -5.49926,3.175 m 16.49778,-6.35 v 6.35 m 5.49926,-6.35 v 6.35 m 1e-5,-6.35 -5.49927,3.175 5.49927,3.175 m -10.99853,-6.35 5.49926,3.175 -5.49926,3.175 m 16.49779,-6.35 v 6.35 m 5.49926,-6.35 v 6.35 m 0,-6.35 -5.49926,3.175 5.49926,3.175 m -10.99852,-6.35 5.49926,3.175 -5.49926,3.175 m 16.49778,-6.35 v 6.35 m 5.49926,-6.35 v 6.35 m 0,-6.35 -5.49926,3.175 5.49926,3.175 m -10.99852,-6.35 5.49926,3.175 -5.49926,3.175 m 16.49779,-6.35 v 6.35 m 5.49926,-6.35 v 6.35 m 0,-6.35 -5.49926,3.175 5.49926,3.175 m -10.99853,-6.35 5.49927,3.175 -5.49927,3.175 m 16.49779,-6.35 v 6.35 m 5.49926,-6.35 v 6.35 m 0,-6.35 -5.49926,3.175 5.49926,3.175 m -10.99852,-6.35 5.49926,3.175 -5.49926,3.175 m 16.49778,-6.35 v 6.35 m 5.49926,-6.35 v 6.35 m 1e-5,-6.35 -5.49927,3.175 5.49927,3.175 m -10.99853,-6.35 5.49926,3.175 -5.49926,3.175 m 16.49779,-6.35 v 6.35 m 5.49926,-6.35 v 6.35 m 0,-6.35 -5.49926,3.175 5.49926,3.175 m -10.99852,-6.35 5.49926,3.175 -5.49926,3.175 m -148.480078,0 v 6.35 m 5.49926,-6.35 v 6.35 m 2e-6,-6.35 -5.499262,3.175 5.499262,3.175 M 31.75,190.5 37.249262,193.675 31.75,196.85 m 16.497786,-6.35 v 6.35 m 5.49926,-6.35 v 6.35 m 2e-6,-6.35 -5.499262,3.175 5.499262,3.175 m -10.998524,-6.35 5.499262,3.175 -5.499262,3.175 M 59.24631,190.5 v 6.35 m 5.49926,-6.35 v 6.35 m 2e-6,-6.35 -5.499262,3.175 5.499262,3.175 m -10.998524,-6.35 5.499262,3.175 -5.499262,3.175 m 16.497786,-6.35 v 6.35 m 5.49926,-6.35 v 6.35 m 2e-6,-6.35 -5.499262,3.175 5.499262,3.175 m -10.998524,-6.35 5.499262,3.175 -5.499262,3.175 m 16.497786,-6.35 v 6.35 m 5.49926,-6.35 v 6.35 m 2e-6,-6.35 -5.499262,3.175 5.499262,3.175 m -10.998524,-6.35 5.499262,3.175 -5.499262,3.175 m 16.497786,-6.35 v 6.35 m 5.49926,-6.35 v 6.35 m 2e-6,-6.35 -5.499262,3.175 5.499262,3.175 m -10.998524,-6.35 5.499262,3.175 -5.499262,3.175 m 16.49779,-6.35 v 6.35 m 5.49926,-6.35 v 6.35 m 0,-6.35 -5.49926,3.175 5.49926,3.175 m -10.998526,-6.35 5.499266,3.175 -5.499266,3.175 m 16.497786,-6.35 v 6.35 m 5.49926,-6.35 v 6.35 m 0,-6.35 -5.49926,3.175 5.49926,3.175 m -10.99852,-6.35 5.49926,3.175 -5.49926,3.175 m 16.49778,-6.35 v 6.35 m 5.49926,-6.35 v 6.35 m 1e-5,-6.35 -5.49927,3.175 5.49927,3.175 m -10.99853,-6.35 5.49926,3.175 -5.49926,3.175 m 16.49779,-6.35 v 6.35 m 5.49926,-6.35 v 6.35 m 0,-6.35 -5.49926,3.175 5.49926,3.175 m -10.99852,-6.35 5.49926,3.175 -5.49926,3.175 m 16.49778,-6.35 v 6.35 m 5.49926,-6.35 v 6.35 m 0,-6.35 -5.49926,3.175 5.49926,3.175 m -10.99852,-6.35 5.49926,3.175 -5.49926,3.175 m 16.49779,-6.35 v 6.35 m 5.49926,-6.35 v 6.35 m 0,-6.35 -5.49926,3.175 5.49926,3.175 m -10.99853,-6.35 5.49927,3.175 -5.49927,3.175 m 16.49779,-6.35 v 6.35 m 5.49926,-6.35 v 6.35 m 0,-6.35 -5.49926,3.175 5.49926,3.175 m -10.99852,-6.35 5.49926,3.175 -5.49926,3.175 m 16.49778,-6.35 v 6.35 m 5.49926,-6.35 v 6.35 m 1e-5,-6.35 -5.49927,3.175 5.49927,3.175 m -10.99853,-6.35 5.49926,3.175 -5.49926,3.175 m 16.49779,-6.35 v 6.35 m 5.49926,-6.35 v 6.35 m 0,-6.35 -5.49926,3.175 5.49926,3.175 m -10.99852,-6.35 5.49926,3.175 -5.49926,3.175 m -148.480078,0 v 6.35 m 5.49926,-6.35 v 6.35 m 2e-6,-6.35 -5.499262,3.175 5.499262,3.175 M 31.75,196.85 37.249262,200.025 31.75,203.2 m 16.497786,-6.35 v 6.35 m 5.49926,-6.35 v 6.35 m 2e-6,-6.35 -5.499262,3.175 5.499262,3.175 m -10.998524,-6.35 5.499262,3.175 -5.499262,3.175 m 16.497786,-6.35 v 6.35 m 5.49926,-6.35 v 6.35 m 2e-6,-6.35 -5.499262,3.175 5.499262,3.175 m -10.998524,-6.35 5.499262,3.175 -5.499262,3.175 m 16.497786,-6.35 v 6.35 m 5.49926,-6.35 v 6.35 m 2e-6,-6.35 -5.499262,3.175 5.499262,3.175 m -10.998524,-6.35 5.499262,3.175 -5.499262,3.175 m 16.497786,-6.35 v 6.35 m 5.49926,-6.35 v 6.35 m 2e-6,-6.35 -5.499262,3.175 5.499262,3.175 m -10.998524,-6.35 5.499262,3.175 -5.499262,3.175 m 16.497786,-6.35 v 6.35 m 5.49926,-6.35 v 6.35 m 2e-6,-6.35 -5.499262,3.175 5.499262,3.175 m -10.998524,-6.35 5.499262,3.175 -5.499262,3.175 m 16.49779,-6.35 v 6.35 m 5.49926,-6.35 v 6.35 m 0,-6.35 -5.49926,3.175 5.49926,3.175 m -10.998526,-6.35 5.499266,3.175 -5.499266,3.175 m 16.497786,-6.35 v 6.35 m 5.49926,-6.35 v 6.35 m 0,-6.35 -5.49926,3.175 5.49926,3.175 m -10.99852,-6.35 5.49926,3.175 -5.49926,3.175 m 16.49778,-6.35 v 6.35 m 5.49926,-6.35 v 6.35 m 1e-5,-6.35 -5.49927,3.175 5.49927,3.175 m -10.99853,-6.35 5.49926,3.175 -5.49926,3.175 m 16.49779,-6.35 v 6.35 m 5.49926,-6.35 v 6.35 m 0,-6.35 -5.49926,3.175 5.49926,3.175 m -10.99852,-6.35 5.49926,3.175 -5.49926,3.175 m 16.49778,-6.35 v 6.35 m 5.49926,-6.35 v 6.35 m 0,-6.35 -5.49926,3.175 5.49926,3.175 m -10.99852,-6.35 5.49926,3.175 -5.49926,3.175 m 16.49779,-6.35 v 6.35 m 5.49926,-6.35 v 6.35 m 0,-6.35 -5.49926,3.175 5.49926,3.175 m -10.99853,-6.35 5.49927,3.175 -5.49927,3.175 m 16.49779,-6.35 v 6.35 m 5.49926,-6.35 v 6.35 m 0,-6.35 -5.49926,3.175 5.49926,3.175 m -10.99852,-6.35 5.49926,3.175 -5.49926,3.175 m 16.49778,-6.35 v 6.35 m 5.49926,-6.35 v 6.35 m 1e-5,-6.35 -5.49927,3.175 5.49927,3.175 m -10.99853,-6.35 5.49926,3.175 -5.49926,3.175 m 16.49779,-6.35 v 6.35 m 5.49926,-6.35 v 6.35 m 0,-6.35 -5.49926,3.175 5.49926,3.175 m -10.99852,-6.35 5.49926,3.175 -5.49926,3.175 m -148.480078,0 v 6.35 m 5.49926,-6.35 v 6.35 m 2e-6,-6.35 -5.499262,3.175 5.499262,3.175 M 31.75,203.2 37.249262,206.375 31.75,209.55 m 16.497786,-6.35 v 6.35 m 5.49926,-6.35 v 6.35 m 2e-6,-6.35 -5.499262,3.175 5.499262,3.175 m -10.998524,-6.35 5.499262,3.175 -5.499262,3.175 M 59.24631,203.2 v 6.35 m 5.49926,-6.35 v 6.35 m 2e-6,-6.35 -5.499262,3.175 5.499262,3.175 m -10.998524,-6.35 5.499262,3.175 -5.499262,3.175 m 16.497786,-6.35 v 6.35 m 5.49926,-6.35 v 6.35 m 2e-6,-6.35 -5.499262,3.175 5.499262,3.175 m -10.998524,-6.35 5.499262,3.175 -5.499262,3.175 m 16.497786,-6.35 v 6.35 m 5.49926,-6.35 v 6.35 m 2e-6,-6.35 -5.499262,3.175 5.499262,3.175 m -10.998524,-6.35 5.499262,3.175 -5.499262,3.175 m 16.497786,-6.35 v 6.35 m 5.49926,-6.35 v 6.35 m 2e-6,-6.35 -5.499262,3.175 5.499262,3.175 m -10.998524,-6.35 5.499262,3.175 -5.499262,3.175 m 16.49779,-6.35 v 6.35 m 5.49926,-6.35 v 6.35 m 0,-6.35 -5.49926,3.175 5.49926,3.175 m -10.998526,-6.35 5.499266,3.175 -5.499266,3.175 m 16.497786,-6.35 v 6.35 m 5.49926,-6.35 v 6.35 m 0,-6.35 -5.49926,3.175 5.49926,3.175 m -10.99852,-6.35 5.49926,3.175 -5.49926,3.175 m 16.49778,-6.35 v 6.35 m 5.49926,-6.35 v 6.35 m 1e-5,-6.35 -5.49927,3.175 5.49927,3.175 m -10.99853,-6.35 5.49926,3.175 -5.49926,3.175 m 16.49779,-6.35 v 6.35 m 5.49926,-6.35 v 6.35 m 0,-6.35 -5.49926,3.175 5.49926,3.175 m -10.99852,-6.35 5.49926,3.175 -5.49926,3.175 m 16.49778,-6.35 v 6.35 m 5.49926,-6.35 v 6.35 m 0,-6.35 -5.49926,3.175 5.49926,3.175 m -10.99852,-6.35 5.49926,3.175 -5.49926,3.175 m 16.49779,-6.35 v 6.35 m 5.49926,-6.35 v 6.35 m 0,-6.35 -5.49926,3.175 5.49926,3.175 m -10.99853,-6.35 5.49927,3.175 -5.49927,3.175 m 16.49779,-6.35 v 6.35 m 5.49926,-6.35 v 6.35 m 0,-6.35 -5.49926,3.175 5.49926,3.175 m -10.99852,-6.35 5.49926,3.175 -5.49926,3.175 m 16.49778,-6.35 v 6.35 m 5.49926,-6.35 v 6.35 m 1e-5,-6.35 -5.49927,3.175 5.49927,3.175 m -10.99853,-6.35 5.49926,3.175 -5.49926,3.175 m 16.49779,-6.35 v 6.35 m 5.49926,-6.35 v 6.35 m 0,-6.35 -5.49926,3.175 5.49926,3.175 m -10.99852,-6.35 5.49926,3.175 -5.49926,3.175 m -148.480078,0 v 6.35 m 5.49926,-6.35 v 6.35 m 2e-6,-6.35 -5.499262,3.175 5.499262,3.175 M 31.75,209.55 37.249262,212.725 31.75,215.9 m 16.497786,-6.35 v 6.35 m 5.49926,-6.35 v 6.35 m 2e-6,-6.35 -5.499262,3.175 5.499262,3.175 m -10.998524,-6.35 5.499262,3.175 -5.499262,3.175 m 16.497786,-6.35 v 6.35 m 5.49926,-6.35 v 6.35 m 2e-6,-6.35 -5.499262,3.175 5.499262,3.175 m -10.998524,-6.35 5.499262,3.175 -5.499262,3.175 m 16.497786,-6.35 v 6.35 m 5.49926,-6.35 v 6.35 m 2e-6,-6.35 -5.499262,3.175 5.499262,3.175 m -10.998524,-6.35 5.499262,3.175 -5.499262,3.175 m 16.497786,-6.35 v 6.35 m 5.49926,-6.35 v 6.35 m 2e-6,-6.35 -5.499262,3.175 5.499262,3.175 m -10.998524,-6.35 5.499262,3.175 -5.499262,3.175 m 16.497786,-6.35 v 6.35 m 5.49926,-6.35 v 6.35 m 2e-6,-6.35 -5.499262,3.175 5.499262,3.175 m -10.998524,-6.35 5.499262,3.175 -5.499262,3.175 m 16.49779,-6.35 v 6.35 m 5.49926,-6.35 v 6.35 m 0,-6.35 -5.49926,3.175 5.49926,3.175 m -10.998526,-6.35 5.499266,3.175 -5.499266,3.175 m 16.497786,-6.35 v 6.35 m 5.49926,-6.35 v 6.35 m 0,-6.35 -5.49926,3.175 5.49926,3.175 m -10.99852,-6.35 5.49926,3.175 -5.49926,3.175 m 16.49778,-6.35 v 6.35 m 5.49926,-6.35 v 6.35 m 1e-5,-6.35 -5.49927,3.175 5.49927,3.175 m -10.99853,-6.35 5.49926,3.175 -5.49926,3.175 m 16.49779,-6.35 v 6.35 m 5.49926,-6.35 v 6.35 m 0,-6.35 -5.49926,3.175 5.49926,3.175 m -10.99852,-6.35 5.49926,3.175 -5.49926,3.175 m 16.49778,-6.35 v 6.35 m 5.49926,-6.35 v 6.35 m 0,-6.35 -5.49926,3.175 5.49926,3.175 m -10.99852,-6.35 5.49926,3.175 -5.49926,3.175 m 16.49779,-6.35 v 6.35 m 5.49926,-6.35 v 6.35 m 0,-6.35 -5.49926,3.175 5.49926,3.175 m -10.99853,-6.35 5.49927,3.175 -5.49927,3.175 m 16.49779,-6.35 v 6.35 m 5.49926,-6.35 v 6.35 m 0,-6.35 -5.49926,3.175 5.49926,3.175 m -10.99852,-6.35 5.49926,3.175 -5.49926,3.175 m 16.49778,-6.35 v 6.35 m 5.49926,-6.35 v 6.35 m 1e-5,-6.35 -5.49927,3.175 5.49927,3.175 m -10.99853,-6.35 5.49926,3.175 -5.49926,3.175 m 16.49779,-6.35 v 6.35 m 5.49926,-6.35 v 6.35 m 0,-6.35 -5.49926,3.175 5.49926,3.175 m -10.99852,-6.35 5.49926,3.175 -5.49926,3.175 m -148.480078,0 v 6.35 m 5.49926,-6.35 v 6.35 m 2e-6,-6.35 -5.499262,3.175 5.499262,3.175 M 31.75,215.9 37.249262,219.075 31.75,222.25 m 16.497786,-6.35 v 6.35 m 5.49926,-6.35 v 6.35 m 2e-6,-6.35 -5.499262,3.175 5.499262,3.175 m -10.998524,-6.35 5.499262,3.175 -5.499262,3.175 M 59.24631,215.9 v 6.35 m 5.49926,-6.35 v 6.35 m 2e-6,-6.35 -5.499262,3.175 5.499262,3.175 m -10.998524,-6.35 5.499262,3.175 -5.499262,3.175 m 16.497786,-6.35 v 6.35 m 5.49926,-6.35 v 6.35 m 2e-6,-6.35 -5.499262,3.175 5.499262,3.175 m -10.998524,-6.35 5.499262,3.175 -5.499262,3.175 m 16.497786,-6.35 v 6.35 m 5.49926,-6.35 v 6.35 m 2e-6,-6.35 -5.499262,3.175 5.499262,3.175 m -10.998524,-6.35 5.499262,3.175 -5.499262,3.175 m 16.497786,-6.35 v 6.35 m 5.49926,-6.35 v 6.35 m 2e-6,-6.35 -5.499262,3.175 5.499262,3.175 m -10.998524,-6.35 5.499262,3.175 -5.499262,3.175 m 16.49779,-6.35 v 6.35 m 5.49926,-6.35 v 6.35 m 0,-6.35 -5.49926,3.175 5.49926,3.175 m -10.998526,-6.35 5.499266,3.175 -5.499266,3.175 m 16.497786,-6.35 v 6.35 m 5.49926,-6.35 v 6.35 m 0,-6.35 -5.49926,3.175 5.49926,3.175 m -10.99852,-6.35 5.49926,3.175 -5.49926,3.175 m 16.49778,-6.35 v 6.35 m 5.49926,-6.35 v 6.35 m 1e-5,-6.35 -5.49927,3.175 5.49927,3.175 m -10.99853,-6.35 5.49926,3.175 -5.49926,3.175 m 16.49779,-6.35 v 6.35 m 5.49926,-6.35 v 6.35 m 0,-6.35 -5.49926,3.175 5.49926,3.175 m -10.99852,-6.35 5.49926,3.175 -5.49926,3.175 m 16.49778,-6.35 v 6.35 m 5.49926,-6.35 v 6.35 m 0,-6.35 -5.49926,3.175 5.49926,3.175 m -10.99852,-6.35 5.49926,3.175 -5.49926,3.175 m 16.49779,-6.35 v 6.35 m 5.49926,-6.35 v 6.35 m 0,-6.35 -5.49926,3.175 5.49926,3.175 m -10.99853,-6.35 5.49927,3.175 -5.49927,3.175 m 16.49779,-6.35 v 6.35 m 5.49926,-6.35 v 6.35 m 0,-6.35 -5.49926,3.175 5.49926,3.175 m -10.99852,-6.35 5.49926,3.175 -5.49926,3.175 m 16.49778,-6.35 v 6.35 m 5.49926,-6.35 v 6.35 m 1e-5,-6.35 -5.49927,3.175 5.49927,3.175 m -10.99853,-6.35 5.49926,3.175 -5.49926,3.175 m 16.49779,-6.35 v 6.35 m 5.49926,-6.35 v 6.35 m 0,-6.35 -5.49926,3.175 5.49926,3.175 m -10.99852,-6.35 5.49926,3.175 -5.49926,3.175 m -148.480078,0 v 6.35 m 5.49926,-6.35 v 6.35 m 2e-6,-6.35 -5.499262,3.175 5.499262,3.175 M 31.75,222.25 37.249262,225.425 31.75,228.6 m 16.497786,-6.35 v 6.35 m 5.49926,-6.35 v 6.35 m 2e-6,-6.35 -5.499262,3.175 5.499262,3.175 m -10.998524,-6.35 5.499262,3.175 -5.499262,3.175 m 16.497786,-6.35 v 6.35 m 5.49926,-6.35 v 6.35 m 2e-6,-6.35 -5.499262,3.175 5.499262,3.175 m -10.998524,-6.35 5.499262,3.175 -5.499262,3.175 m 16.497786,-6.35 v 6.35 m 5.49926,-6.35 v 6.35 m 2e-6,-6.35 -5.499262,3.175 5.499262,3.175 m -10.998524,-6.35 5.499262,3.175 -5.499262,3.175 m 16.497786,-6.35 v 6.35 m 5.49926,-6.35 v 6.35 m 2e-6,-6.35 -5.499262,3.175 5.499262,3.175 m -10.998524,-6.35 5.499262,3.175 -5.499262,3.175 m 16.497786,-6.35 v 6.35 m 5.49926,-6.35 v 6.35 m 2e-6,-6.35 -5.499262,3.175 5.499262,3.175 m -10.998524,-6.35 5.499262,3.175 -5.499262,3.175 m 16.49779,-6.35 v 6.35 m 5.49926,-6.35 v 6.35 m 0,-6.35 -5.49926,3.175 5.49926,3.175 m -10.998526,-6.35 5.499266,3.175 -5.499266,3.175 m 16.497786,-6.35 v 6.35 m 5.49926,-6.35 v 6.35 m 0,-6.35 -5.49926,3.175 5.49926,3.175 m -10.99852,-6.35 5.49926,3.175 -5.49926,3.175 m 16.49778,-6.35 v 6.35 m 5.49926,-6.35 v 6.35 m 1e-5,-6.35 -5.49927,3.175 5.49927,3.175 m -10.99853,-6.35 5.49926,3.175 -5.49926,3.175 m 16.49779,-6.35 v 6.35 m 5.49926,-6.35 v 6.35 m 0,-6.35 -5.49926,3.175 5.49926,3.175 m -10.99852,-6.35 5.49926,3.175 -5.49926,3.175 m 16.49778,-6.35 v 6.35 m 5.49926,-6.35 v 6.35 m 0,-6.35 -5.49926,3.175 5.49926,3.175 m -10.99852,-6.35 5.49926,3.175 -5.49926,3.175 m 16.49779,-6.35 v 6.35 m 5.49926,-6.35 v 6.35 m 0,-6.35 -5.49926,3.175 5.49926,3.175 m -10.99853,-6.35 5.49927,3.175 -5.49927,3.175 m 16.49779,-6.35 v 6.35 m 5.49926,-6.35 v 6.35 m 0,-6.35 -5.49926,3.175 5.49926,3.175 m -10.99852,-6.35 5.49926,3.175 -5.49926,3.175 m 16.49778,-6.35 v 6.35 m 5.49926,-6.35 v 6.35 m 1e-5,-6.35 -5.49927,3.175 5.49927,3.175 m -10.99853,-6.35 5.49926,3.175 -5.49926,3.175 m 16.49779,-6.35 v 6.35 m 5.49926,-6.35 v 6.35 m 0,-6.35 -5.49926,3.175 5.49926,3.175 m -10.99852,-6.35 5.49926,3.175 -5.49926,3.175 m -148.480078,0 v 6.35 m 5.49926,-6.35 v 6.35 m 2e-6,-6.35 -5.499262,3.175 5.499262,3.175 M 31.75,228.6 37.249262,231.775 31.75,234.95 m 16.497786,-6.35 v 6.35 m 5.49926,-6.35 v 6.35 m 2e-6,-6.35 -5.499262,3.175 5.499262,3.175 m -10.998524,-6.35 5.499262,3.175 -5.499262,3.175 M 59.24631,228.6 v 6.35 m 5.49926,-6.35 v 6.35 m 2e-6,-6.35 -5.499262,3.175 5.499262,3.175 m -10.998524,-6.35 5.499262,3.175 -5.499262,3.175 m 16.497786,-6.35 v 6.35 m 5.49926,-6.35 v 6.35 m 2e-6,-6.35 -5.499262,3.175 5.499262,3.175 m -10.998524,-6.35 5.499262,3.175 -5.499262,3.175 m 16.497786,-6.35 v 6.35 m 5.49926,-6.35 v 6.35 m 2e-6,-6.35 -5.499262,3.175 5.499262,3.175 m -10.998524,-6.35 5.499262,3.175 -5.499262,3.175 m 16.497786,-6.35 v 6.35 m 5.49926,-6.35 v 6.35 m 2e-6,-6.35 -5.499262,3.175 5.499262,3.175 m -10.998524,-6.35 5.499262,3.175 -5.499262,3.175 m 16.49779,-6.35 v 6.35 m 5.49926,-6.35 v 6.35 m 0,-6.35 -5.49926,3.175 5.49926,3.175 m -10.998526,-6.35 5.499266,3.175 -5.499266,3.175 m 16.497786,-6.35 v 6.35 m 5.49926,-6.35 v 6.35 m 0,-6.35 -5.49926,3.175 5.49926,3.175 m -10.99852,-6.35 5.49926,3.175 -5.49926,3.175 m 16.49778,-6.35 v 6.35 m 5.49926,-6.35 v 6.35 m 1e-5,-6.35 -5.49927,3.175 5.49927,3.175 m -10.99853,-6.35 5.49926,3.175 -5.49926,3.175 m 16.49779,-6.35 v 6.35 m 5.49926,-6.35 v 6.35 m 0,-6.35 -5.49926,3.175 5.49926,3.175 m -10.99852,-6.35 5.49926,3.175 -5.49926,3.175 m 16.49778,-6.35 v 6.35 m 5.49926,-6.35 v 6.35 m 0,-6.35 -5.49926,3.175 5.49926,3.175 m -10.99852,-6.35 5.49926,3.175 -5.49926,3.175 m 16.49779,-6.35 v 6.35 m 5.49926,-6.35 v 6.35 m 0,-6.35 -5.49926,3.175 5.49926,3.175 m -10.99853,-6.35 5.49927,3.175 -5.49927,3.175 m 16.49779,-6.35 v 6.35 m 5.49926,-6.35 v 6.35 m 0,-6.35 -5.49926,3.175 5.49926,3.175 m -10.99852,-6.35 5.49926,3.175 -5.49926,3.175 m 16.49778,-6.35 v 6.35 m 5.49926,-6.35 v 6.35 m 1e-5,-6.35 -5.49927,3.175 5.49927,3.175 m -10.99853,-6.35 5.49926,3.175 -5.49926,3.175 m 16.49779,-6.35 v 6.35 m 5.49926,-6.35 v 6.35 m 0,-6.35 -5.49926,3.175 5.49926,3.175 m -10.99852,-6.35 5.49926,3.175 -5.49926,3.175 m -148.480078,0 v 6.35 m 5.49926,-6.35 v 6.35 m 2e-6,-6.35 -5.499262,3.175 5.499262,3.175 M 31.75,234.95 37.249262,238.125 31.75,241.3 m 16.497786,-6.35 v 6.35 m 5.49926,-6.35 v 6.35 m 2e-6,-6.35 -5.499262,3.175 5.499262,3.175 m -10.998524,-6.35 5.499262,3.175 -5.499262,3.175 m 16.497786,-6.35 v 6.35 m 5.49926,-6.35 v 6.35 m 2e-6,-6.35 -5.499262,3.175 5.499262,3.175 m -10.998524,-6.35 5.499262,3.175 -5.499262,3.175 m 16.497786,-6.35 v 6.35 m 5.49926,-6.35 v 6.35 m 2e-6,-6.35 -5.499262,3.175 5.499262,3.175 m -10.998524,-6.35 5.499262,3.175 -5.499262,3.175 m 16.497786,-6.35 v 6.35 m 5.49926,-6.35 v 6.35 m 2e-6,-6.35 -5.499262,3.175 5.499262,3.175 m -10.998524,-6.35 5.499262,3.175 -5.499262,3.175 m 16.497786,-6.35 v 6.35 m 5.49926,-6.35 v 6.35 m 2e-6,-6.35 -5.499262,3.175 5.499262,3.175 m -10.998524,-6.35 5.499262,3.175 -5.499262,3.175 m 16.49779,-6.35 v 6.35 m 5.49926,-6.35 v 6.35 m 0,-6.35 -5.49926,3.175 5.49926,3.175 m -10.998526,-6.35 5.499266,3.175 -5.499266,3.175 m 16.497786,-6.35 v 6.35 m 5.49926,-6.35 v 6.35 m 0,-6.35 -5.49926,3.175 5.49926,3.175 m -10.99852,-6.35 5.49926,3.175 -5.49926,3.175 m 16.49778,-6.35 v 6.35 m 5.49926,-6.35 v 6.35 m 1e-5,-6.35 -5.49927,3.175 5.49927,3.175 m -10.99853,-6.35 5.49926,3.175 -5.49926,3.175 m 16.49779,-6.35 v 6.35 m 5.49926,-6.35 v 6.35 m 0,-6.35 -5.49926,3.175 5.49926,3.175 m -10.99852,-6.35 5.49926,3.175 -5.49926,3.175 m 16.49778,-6.35 v 6.35 m 5.49926,-6.35 v 6.35 m 0,-6.35 -5.49926,3.175 5.49926,3.175 m -10.99852,-6.35 5.49926,3.175 -5.49926,3.175 m 16.49779,-6.35 v 6.35 m 5.49926,-6.35 v 6.35 m 0,-6.35 -5.49926,3.175 5.49926,3.175 m -10.99853,-6.35 5.49927,3.175 -5.49927,3.175 m 16.49779,-6.35 v 6.35 m 5.49926,-6.35 v 6.35 m 0,-6.35 -5.49926,3.175 5.49926,3.175 m -10.99852,-6.35 5.49926,3.175 -5.49926,3.175 m 16.49778,-6.35 v 6.35 m 5.49926,-6.35 v 6.35 m 1e-5,-6.35 -5.49927,3.175 5.49927,3.175 m -10.99853,-6.35 5.49926,3.175 -5.49926,3.175 m 16.49779,-6.35 v 6.35 m 5.49926,-6.35 v 6.35 m 0,-6.35 -5.49926,3.175 5.49926,3.175 m -10.99852,-6.35 5.49926,3.175 -5.49926,3.175 m -148.480078,0 v 6.35 m 5.49926,-6.35 v 6.35 m 2e-6,-6.35 -5.499262,3.175 5.499262,3.175 M 31.75,241.3 37.249262,244.475 31.75,247.65 m 16.497786,-6.35 v 6.35 m 5.49926,-6.35 v 6.35 m 2e-6,-6.35 -5.499262,3.175 5.499262,3.175 m -10.998524,-6.35 5.499262,3.175 -5.499262,3.175 M 59.24631,241.3 v 6.35 m 5.49926,-6.35 v 6.35 m 2e-6,-6.35 -5.499262,3.175 5.499262,3.175 m -10.998524,-6.35 5.499262,3.175 -5.499262,3.175 m 16.497786,-6.35 v 6.35 m 5.49926,-6.35 v 6.35 m 2e-6,-6.35 -5.499262,3.175 5.499262,3.175 m -10.998524,-6.35 5.499262,3.175 -5.499262,3.175 m 16.497786,-6.35 v 6.35 m 5.49926,-6.35 v 6.35 m 2e-6,-6.35 -5.499262,3.175 5.499262,3.175 m -10.998524,-6.35 5.499262,3.175 -5.499262,3.175 m 16.497786,-6.35 v 6.35 m 5.49926,-6.35 v 6.35 m 2e-6,-6.35 -5.499262,3.175 5.499262,3.175 m -10.998524,-6.35 5.499262,3.175 -5.499262,3.175 m 16.49779,-6.35 v 6.35 m 5.49926,-6.35 v 6.35 m 0,-6.35 -5.49926,3.175 5.49926,3.175 m -10.998526,-6.35 5.499266,3.175 -5.499266,3.175 m 16.497786,-6.35 v 6.35 m 5.49926,-6.35 v 6.35 m 0,-6.35 -5.49926,3.175 5.49926,3.175 m -10.99852,-6.35 5.49926,3.175 -5.49926,3.175 m 16.49778,-6.35 v 6.35 m 5.49926,-6.35 v 6.35 m 1e-5,-6.35 -5.49927,3.175 5.49927,3.175 m -10.99853,-6.35 5.49926,3.175 -5.49926,3.175 m 16.49779,-6.35 v 6.35 m 5.49926,-6.35 v 6.35 m 0,-6.35 -5.49926,3.175 5.49926,3.175 m -10.99852,-6.35 5.49926,3.175 -5.49926,3.175 m 16.49778,-6.35 v 6.35 m 5.49926,-6.35 v 6.35 m 0,-6.35 -5.49926,3.175 5.49926,3.175 m -10.99852,-6.35 5.49926,3.175 -5.49926,3.175 m 16.49779,-6.35 v 6.35 m 5.49926,-6.35 v 6.35 m 0,-6.35 -5.49926,3.175 5.49926,3.175 m -10.99853,-6.35 5.49927,3.175 -5.49927,3.175 m 16.49779,-6.35 v 6.35 m 5.49926,-6.35 v 6.35 m 0,-6.35 -5.49926,3.175 5.49926,3.175 m -10.99852,-6.35 5.49926,3.175 -5.49926,3.175 m 16.49778,-6.35 v 6.35 m 5.49926,-6.35 v 6.35 m 1e-5,-6.35 -5.49927,3.175 5.49927,3.175 m -10.99853,-6.35 5.49926,3.175 -5.49926,3.175 m 16.49779,-6.35 v 6.35 m 5.49926,-6.35 v 6.35 m 0,-6.35 -5.49926,3.175 5.49926,3.175 m -10.99852,-6.35 5.49926,3.175 -5.49926,3.175 m -148.480078,0 V 254 m 5.49926,-6.35 V 254 m 2e-6,-6.35 -5.499262,3.175 5.499262,3.175 M 31.75,247.65 37.249262,250.825 31.75,254 m 16.497786,-6.35 V 254 m 5.49926,-6.35 V 254 m 2e-6,-6.35 -5.499262,3.175 5.499262,3.175 m -10.998524,-6.35 5.499262,3.175 L 42.748524,254 M 59.24631,247.65 V 254 m 5.49926,-6.35 V 254 m 2e-6,-6.35 -5.499262,3.175 5.499262,3.175 m -10.998524,-6.35 5.499262,3.175 -5.499262,3.175 m 16.497786,-6.35 V 254 m 5.49926,-6.35 V 254 m 2e-6,-6.35 -5.499262,3.175 5.499262,3.175 m -10.998524,-6.35 5.499262,3.175 -5.499262,3.175 m 16.497786,-6.35 V 254 m 5.49926,-6.35 V 254 m 2e-6,-6.35 -5.499262,3.175 5.499262,3.175 m -10.998524,-6.35 5.499262,3.175 -5.499262,3.175 m 16.497786,-6.35 V 254 m 5.49926,-6.35 V 254 m 2e-6,-6.35 -5.499262,3.175 5.499262,3.175 M 86.74262,247.65 92.241882,250.825 86.74262,254 m 16.49779,-6.35 V 254 m 5.49926,-6.35 V 254 m 0,-6.35 -5.49926,3.175 5.49926,3.175 m -10.998526,-6.35 5.499266,3.175 -5.499266,3.175 m 16.497786,-6.35 V 254 m 5.49926,-6.35 V 254 m 0,-6.35 -5.49926,3.175 5.49926,3.175 m -10.99852,-6.35 5.49926,3.175 -5.49926,3.175 m 16.49778,-6.35 V 254 m 5.49926,-6.35 V 254 m 1e-5,-6.35 -5.49927,3.175 5.49927,3.175 m -10.99853,-6.35 5.49926,3.175 -5.49926,3.175 m 16.49779,-6.35 V 254 m 5.49926,-6.35 V 254 m 0,-6.35 -5.49926,3.175 5.49926,3.175 m -10.99852,-6.35 5.49926,3.175 -5.49926,3.175 m 16.49778,-6.35 V 254 m 5.49926,-6.35 V 254 m 0,-6.35 -5.49926,3.175 5.49926,3.175 m -10.99852,-6.35 5.49926,3.175 -5.49926,3.175 m 16.49779,-6.35 V 254 m 5.49926,-6.35 V 254 m 0,-6.35 -5.49926,3.175 5.49926,3.175 m -10.99853,-6.35 5.49927,3.175 -5.49927,3.175 m 16.49779,-6.35 V 254 m 5.49926,-6.35 V 254 m 0,-6.35 -5.49926,3.175 5.49926,3.175 m -10.99852,-6.35 5.49926,3.175 -5.49926,3.175 m 16.49778,-6.35 V 254 m 5.49926,-6.35 V 254 m 1e-5,-6.35 -5.49927,3.175 5.49927,3.175 m -10.99853,-6.35 5.49926,3.175 -5.49926,3.175 m 16.49779,-6.35 V 254 m 5.49926,-6.35 V 254 m 0,-6.35 -5.49926,3.175 5.49926,3.175 m -10.99852,-6.35 5.49926,3.175 -5.49926,3.175 m -148.480078,0 v 6.35 m 5.49926,-6.35 v 6.35 m 2e-6,-6.35 -5.499262,3.175 5.499262,3.175 M 31.75,254 37.249262,257.175 31.75,260.35 M 48.247786,254 v 6.35 m 5.49926,-6.35 v 6.35 m 2e-6,-6.35 -5.499262,3.175 5.499262,3.175 M 42.748524,254 l 5.499262,3.175 -5.499262,3.175 M 59.24631,254 v 6.35 M 64.74557,254 v 6.35 m 2e-6,-6.35 -5.499262,3.175 5.499262,3.175 M 53.747048,254 l 5.499262,3.175 -5.499262,3.175 M 70.244834,254 v 6.35 m 5.49926,-6.35 v 6.35 m 2e-6,-6.35 -5.499262,3.175 5.499262,3.175 M 64.745572,254 l 5.499262,3.175 -5.499262,3.175 M 81.243358,254 v 6.35 m 5.49926,-6.35 v 6.35 m 2e-6,-6.35 -5.499262,3.175 5.499262,3.175 M 75.744096,254 l 5.499262,3.175 -5.499262,3.175 M 92.241882,254 v 6.35 m 5.49926,-6.35 v 6.35 m 2e-6,-6.35 -5.499262,3.175 5.499262,3.175 M 86.74262,254 l 5.499262,3.175 -5.499262,3.175 M 103.24041,254 v 6.35 m 5.49926,-6.35 v 6.35 m 0,-6.35 -5.49926,3.175 5.49926,3.175 M 97.741144,254 l 5.499266,3.175 -5.499266,3.175 M 114.23893,254 v 6.35 m 5.49926,-6.35 v 6.35 m 0,-6.35 -5.49926,3.175 5.49926,3.175 m -10.99852,-6.35 5.49926,3.175 -5.49926,3.175 M 125.23745,254 v 6.35 m 5.49926,-6.35 v 6.35 m 1e-5,-6.35 -5.49927,3.175 5.49927,3.175 m -10.99853,-6.35 5.49926,3.175 -5.49926,3.175 M 136.23598,254 v 6.35 m 5.49926,-6.35 v 6.35 m 0,-6.35 -5.49926,3.175 5.49926,3.175 m -10.99852,-6.35 5.49926,3.175 -5.49926,3.175 M 147.2345,254 v 6.35 m 5.49926,-6.35 v 6.35 m 0,-6.35 -5.49926,3.175 5.49926,3.175 m -10.99852,-6.35 5.49926,3.175 -5.49926,3.175 M 158.23303,254 v 6.35 m 5.49926,-6.35 v 6.35 m 0,-6.35 -5.49926,3.175 5.49926,3.175 m -10.99853,-6.35 5.49927,3.175 -5.49927,3.175 M 169.23155,254 v 6.35 m 5.49926,-6.35 v 6.35 m 0,-6.35 -5.49926,3.175 5.49926,3.175 m -10.99852,-6.35 5.49926,3.175 -5.49926,3.175 M 180.23007,254 v 6.35 m 5.49926,-6.35 v 6.35 m 1e-5,-6.35 -5.49927,3.175 5.49927,3.175 m -10.99853,-6.35 5.49926,3.175 -5.49926,3.175 M 191.2286,254 v 6.35 m 5.49926,-6.35 v 6.35 m 0,-6.35 -5.49926,3.175 5.49926,3.175 m -10.99852,-6.35 5.49926,3.175 -5.49926,3.175"
     inkscape:path-effect="#path-effect441"
     inkscape:original-d="m 37.249262,19.05 v 6.35 m 5.49926,-6.35 v 6.35 m 2e-6,-6.35 -5.499262,3.175 5.499262,3.175 M 31.75,19.05 37.249262,22.225 31.75,25.4"
     transform="matrix(1.0007403,0,0,1,-0.02350585,0)"
     inkscape:label="Iso Triangles" />
</svg>
