<?xml version="1.0" encoding="UTF-8" standalone="no"?>
<!-- Created with Inkscape (http://www.inkscape.org/) -->

<svg
   width="8.5in"
   height="11in"
   viewBox="0 0 215.9 279.4"
   version="1.1"
   id="svg1"
   inkscape:version="1.4 (86a8ad7, 2024-10-11)"
   sodipodi:docname="quad_v2.svg"
   xmlns:inkscape="http://www.inkscape.org/namespaces/inkscape"
   xmlns:sodipodi="http://sodipodi.sourceforge.net/DTD/sodipodi-0.dtd"
   xmlns="http://www.w3.org/2000/svg"
   xmlns:svg="http://www.w3.org/2000/svg">
  <sodipodi:namedview
     id="namedview1"
     pagecolor="#ffffff"
     bordercolor="#000000"
     borderopacity="0.25"
     inkscape:showpageshadow="2"
     inkscape:pageopacity="0.0"
     inkscape:pagecheckerboard="0"
     inkscape:deskcolor="#d1d1d1"
     inkscape:document-units="mm"
     inkscape:zoom="7.7909517"
     inkscape:cx="96.522226"
     inkscape:cy="84.392771"
     inkscape:window-width="1920"
     inkscape:window-height="991"
     inkscape:window-x="-9"
     inkscape:window-y="-9"
     inkscape:window-maximized="1"
     inkscape:current-layer="layer1" />
  <defs
     id="defs1">
    <inkscape:path-effect
       effect="tiling"
       id="path-effect6"
       is_visible="true"
       lpeversion="1.3.1"
       unit="in"
       seed="1;1"
       lpesatellites=""
       num_rows="1"
       num_cols="28"
       gapx="0.25"
       gapy="0"
       offset="0"
       offset_type="false"
       scale="0"
       rotate="0"
       mirrorrowsx="false"
       mirrorrowsy="false"
       mirrorcolsx="false"
       mirrorcolsy="false"
       mirrortrans="false"
       shrink_interp="false"
       split_items="false"
       link_styles="false"
       interpolate_scalex="false"
       interpolate_scaley="true"
       interpolate_rotatex="false"
       interpolate_rotatey="true"
       random_scale="false"
       random_rotate="false"
       random_gap_y="false"
       random_gap_x="false"
       transformorigin="" />
    <inkscape:path-effect
       effect="tiling"
       id="path-effect5"
       is_visible="true"
       lpeversion="1.3.1"
       unit="in"
       seed="1;1"
       lpesatellites=""
       num_rows="38"
       num_cols="1"
       gapx="0"
       gapy="0.25"
       offset="0"
       offset_type="false"
       scale="0"
       rotate="0"
       mirrorrowsx="false"
       mirrorrowsy="false"
       mirrorcolsx="false"
       mirrorcolsy="false"
       mirrortrans="false"
       shrink_interp="false"
       split_items="false"
       link_styles="false"
       interpolate_scalex="false"
       interpolate_scaley="true"
       interpolate_rotatex="false"
       interpolate_rotatey="true"
       random_scale="false"
       random_rotate="false"
       random_gap_y="false"
       random_gap_x="false"
       transformorigin="" />
    <inkscape:path-effect
       effect="tiling"
       id="path-effect4"
       is_visible="true"
       lpeversion="1.3.1"
       unit="in"
       seed="1;1"
       lpesatellites=""
       num_rows="1"
       num_cols="29"
       gapx="0.25"
       gapy="0"
       offset="0"
       offset_type="false"
       scale="0"
       rotate="0"
       mirrorrowsx="false"
       mirrorrowsy="false"
       mirrorcolsx="false"
       mirrorcolsy="false"
       mirrortrans="false"
       shrink_interp="false"
       split_items="false"
       link_styles="false"
       interpolate_scalex="false"
       interpolate_scaley="true"
       interpolate_rotatex="false"
       interpolate_rotatey="true"
       random_scale="false"
       random_rotate="false"
       random_gap_y="false"
       random_gap_x="false"
       transformorigin="" />
    <inkscape:path-effect
       effect="tiling"
       id="path-effect3"
       is_visible="true"
       lpeversion="1.3.1"
       unit="in"
       seed="1;1"
       lpesatellites=""
       num_rows="39"
       num_cols="1"
       gapx="0"
       gapy="0.25"
       offset="0"
       offset_type="false"
       scale="0"
       rotate="0"
       mirrorrowsx="false"
       mirrorrowsy="false"
       mirrorcolsx="false"
       mirrorcolsy="false"
       mirrortrans="false"
       shrink_interp="false"
       split_items="false"
       link_styles="false"
       interpolate_scalex="false"
       interpolate_scaley="true"
       interpolate_rotatex="false"
       interpolate_rotatey="true"
       random_scale="false"
       random_rotate="false"
       random_gap_y="false"
       random_gap_x="false"
       transformorigin="" />
  </defs>
  <g
     inkscape:label="Layer 1"
     inkscape:groupmode="layer"
     id="layer1">
    <rect
       style="fill:none;stroke:#a4dded;stroke-width:0.35277778;stroke-linecap:square;paint-order:markers stroke fill;stroke-dasharray:none"
       id="rect1"
       width="190.30933"
       height="253.80933"
       x="12.795338"
       y="12.795338"
       ry="6.3499999" />
    <rect
       style="fill:none;stroke:#a4dded;stroke-width:0.17638889;stroke-linecap:square;paint-order:markers stroke fill;stroke-dasharray:none"
       id="rect2"
       width="183.48225"
       height="246.98225"
       x="16.208874"
       y="16.208874"
       ry="3.175" />
    <path
       style="fill:none;stroke:#a4dded;stroke-width:0.17642112;stroke-linecap:square;paint-order:markers stroke fill;stroke-dasharray:none"
       d="M 12.744121,19.049988 H 203.15588 m -190.411759,6.35 H 203.15588 m -190.411759,6.35 H 203.15588 m -190.411759,6.35 H 203.15588 m -190.411759,6.35 H 203.15588 m -190.411759,6.35 H 203.15588 m -190.411759,6.35 H 203.15588 m -190.411759,6.35 H 203.15588 m -190.411759,6.35 H 203.15588 m -190.411759,6.35 H 203.15588 m -190.411759,6.35 H 203.15588 m -190.411759,6.35 H 203.15588 m -190.411759,6.35 H 203.15588 M 12.744121,101.59999 H 203.15588 m -190.411759,6.35 H 203.15588 m -190.411759,6.35 H 203.15588 m -190.411759,6.35 H 203.15588 m -190.411759,6.35 H 203.15588 m -190.411759,6.35 H 203.15588 m -190.411759,6.35 H 203.15588 m -190.411759,6.35 H 203.15588 m -190.411759,6.35 H 203.15588 m -190.411759,6.35 H 203.15588 m -190.411759,6.35 H 203.15588 m -190.411759,6.35 H 203.15588 m -190.411759,6.35 H 203.15588 m -190.411759,6.35 H 203.15588 m -190.411759,6.35 H 203.15588 m -190.411759,6.35 H 203.15588 m -190.411759,6.35 H 203.15588 m -190.411759,6.35 H 203.15588 m -190.411759,6.35 H 203.15588 m -190.411759,6.35 H 203.15588 m -190.411759,6.35 H 203.15588 m -190.411759,6.35 H 203.15588 m -190.411759,6.35 H 203.15588 m -190.411759,6.35 H 203.15588 m -190.411759,6.35 H 203.15588 m -190.411759,6.35 H 203.15588"
       id="path2"
       inkscape:path-effect="#path-effect3"
       inkscape:original-d="M 12.744121,19.049988 H 203.15588"
       transform="matrix(1.0000001,0,0,0.99963454,-9.137593e-6,0.05106691)" />
    <path
       style="fill:none;stroke:#a4dded;stroke-width:0.17643264;stroke-linecap:square;paint-order:markers stroke fill;stroke-dasharray:none"
       d="M 19.094106,12.744115 V 266.65588 m 6.35,-253.911765 V 266.65588 m 6.35,-253.911765 V 266.65588 m 6.35,-253.911765 V 266.65588 m 6.35,-253.911765 V 266.65588 m 6.35,-253.911765 V 266.65588 m 6.35,-253.911765 V 266.65588 m 6.35,-253.911765 V 266.65588 m 6.35,-253.911765 V 266.65588 m 6.35,-253.911765 V 266.65588 m 6.35,-253.911765 V 266.65588 m 6.35,-253.911765 V 266.65588 m 6.35,-253.911765 V 266.65588 M 101.64411,12.744115 V 266.65588 m 6.35,-253.911765 V 266.65588 m 6.35,-253.911765 V 266.65588 m 6.35,-253.911765 V 266.65588 m 6.35,-253.911765 V 266.65588 m 6.35,-253.911765 V 266.65588 m 6.35,-253.911765 V 266.65588 m 6.35,-253.911765 V 266.65588 m 6.35,-253.911765 V 266.65588 m 6.35,-253.911765 V 266.65588 m 6.35,-253.911765 V 266.65588 m 6.35,-253.911765 V 266.65588 m 6.35,-253.911765 V 266.65588 m 6.35,-253.911765 V 266.65588 m 6.35,-253.911765 V 266.65588 m 6.35,-253.911765 V 266.65588"
       id="path3"
       inkscape:path-effect="#path-effect4"
       inkscape:original-d="M 19.094106,12.744115 V 266.65588"
       transform="matrix(0.99950397,0,0,1.0000001,0.00946032,-1.2036455e-5)" />
    <path
       style="fill:none;stroke:#a4dded;stroke-width:0.04409722;stroke-linecap:square;paint-order:markers stroke fill;stroke-dasharray:none"
       d="M 19.094095,22.269097 H 196.8059 m -177.711805,6.35 H 196.8059 m -177.711805,6.35 H 196.8059 m -177.711805,6.35 H 196.8059 m -177.711805,6.35 H 196.8059 m -177.711805,6.35 H 196.8059 m -177.711805,6.35 H 196.8059 m -177.711805,6.35 H 196.8059 m -177.711805,6.35 H 196.8059 m -177.711805,6.35 H 196.8059 m -177.711805,6.35 H 196.8059 m -177.711805,6.35 H 196.8059 m -177.711805,6.35 H 196.8059 M 19.094095,104.8191 H 196.8059 m -177.711805,6.35 H 196.8059 m -177.711805,6.35 H 196.8059 m -177.711805,6.35 H 196.8059 m -177.711805,6.35 H 196.8059 m -177.711805,6.35 H 196.8059 m -177.711805,6.35 H 196.8059 m -177.711805,6.35 H 196.8059 m -177.711805,6.35 H 196.8059 m -177.711805,6.35 H 196.8059 m -177.711805,6.35 H 196.8059 m -177.711805,6.35 H 196.8059 m -177.711805,6.35 H 196.8059 m -177.711805,6.35 H 196.8059 m -177.711805,6.35 H 196.8059 m -177.711805,6.35 H 196.8059 m -177.711805,6.35 H 196.8059 m -177.711805,6.35 H 196.8059 m -177.711805,6.35 H 196.8059 m -177.711805,6.35 H 196.8059 m -177.711805,6.35 H 196.8059 m -177.711805,6.35 H 196.8059 m -177.711805,6.35 H 196.8059 m -177.711805,6.35 H 196.8059 m -177.711805,6.35 H 196.8059"
       id="path4"
       inkscape:path-effect="#path-effect5"
       inkscape:original-d="M 19.094095,22.269097 H 196.8059" />
    <path
       style="fill:none;stroke:#a4dded;stroke-width:0.04409722;stroke-linecap:square;paint-order:markers stroke fill;stroke-dasharray:none"
       d="M 22.269097,19.094093 V 260.3059 m 6.35,-241.211807 V 260.3059 m 6.35,-241.211807 V 260.3059 m 6.35,-241.211807 V 260.3059 m 6.35,-241.211807 V 260.3059 m 6.35,-241.211807 V 260.3059 m 6.35,-241.211807 V 260.3059 m 6.35,-241.211807 V 260.3059 m 6.35,-241.211807 V 260.3059 m 6.35,-241.211807 V 260.3059 m 6.35,-241.211807 V 260.3059 m 6.35,-241.211807 V 260.3059 m 6.35,-241.211807 V 260.3059 M 104.8191,19.094093 V 260.3059 m 6.35,-241.211807 V 260.3059 m 6.35,-241.211807 V 260.3059 m 6.35,-241.211807 V 260.3059 m 6.35,-241.211807 V 260.3059 m 6.35,-241.211807 V 260.3059 m 6.35,-241.211807 V 260.3059 m 6.35,-241.211807 V 260.3059 m 6.35,-241.211807 V 260.3059 m 6.35,-241.211807 V 260.3059 m 6.35,-241.211807 V 260.3059 m 6.35,-241.211807 V 260.3059 m 6.35,-241.211807 V 260.3059 m 6.35,-241.211807 V 260.3059 m 6.35,-241.211807 V 260.3059"
       id="path5"
       inkscape:path-effect="#path-effect6"
       inkscape:original-d="M 22.269097,19.094093 V 260.3059" />
  </g>
</svg>
