<?xml version="1.0" encoding="UTF-8" standalone="no"?>
<!-- Created with Inkscape (http://www.inkscape.org/) -->

<svg
   width="8.5in"
   height="11in"
   viewBox="0 0 215.9 279.4"
   version="1.1"
   id="svg1"
   inkscape:version="1.4 (86a8ad7, 2024-10-11)"
   sodipodi:docname="quad_v1.svg"
   inkscape:export-filename="quad_v1.pdf"
   inkscape:export-xdpi="96"
   inkscape:export-ydpi="96"
   xmlns:inkscape="http://www.inkscape.org/namespaces/inkscape"
   xmlns:sodipodi="http://sodipodi.sourceforge.net/DTD/sodipodi-0.dtd"
   xmlns="http://www.w3.org/2000/svg"
   xmlns:svg="http://www.w3.org/2000/svg">
  <sodipodi:namedview
     id="namedview1"
     pagecolor="#ffffff"
     bordercolor="#000000"
     borderopacity="0.25"
     inkscape:showpageshadow="2"
     inkscape:pageopacity="0.0"
     inkscape:pagecheckerboard="0"
     inkscape:deskcolor="#d1d1d1"
     inkscape:document-units="in"
     inkscape:zoom="1.9477379"
     inkscape:cx="223.84942"
     inkscape:cy="180.46576"
     inkscape:window-width="1920"
     inkscape:window-height="991"
     inkscape:window-x="-9"
     inkscape:window-y="-9"
     inkscape:window-maximized="1"
     inkscape:current-layer="layer1" />
  <defs
     id="defs1">
    <inkscape:path-effect
       effect="tiling"
       id="path-effect5"
       is_visible="true"
       lpeversion="1.3.1"
       unit="in"
       seed="1;1"
       lpesatellites=""
       num_rows="1"
       num_cols="26"
       gapx="0.25"
       gapy="0"
       offset="0"
       offset_type="false"
       scale="0"
       rotate="0"
       mirrorrowsx="false"
       mirrorrowsy="false"
       mirrorcolsx="false"
       mirrorcolsy="false"
       mirrortrans="false"
       shrink_interp="false"
       split_items="false"
       link_styles="false"
       interpolate_scalex="false"
       interpolate_scaley="true"
       interpolate_rotatex="false"
       interpolate_rotatey="true"
       random_scale="false"
       random_rotate="false"
       random_gap_y="false"
       random_gap_x="false"
       transformorigin="" />
    <inkscape:path-effect
       effect="tiling"
       id="path-effect4"
       is_visible="true"
       lpeversion="1.3.1"
       unit="in"
       seed="1;1"
       lpesatellites=""
       num_rows="38"
       num_cols="1"
       gapx="0"
       gapy="0.25"
       offset="0"
       offset_type="false"
       scale="0"
       rotate="0"
       mirrorrowsx="false"
       mirrorrowsy="false"
       mirrorcolsx="false"
       mirrorcolsy="false"
       mirrortrans="false"
       shrink_interp="false"
       split_items="false"
       link_styles="false"
       interpolate_scalex="false"
       interpolate_scaley="true"
       interpolate_rotatex="false"
       interpolate_rotatey="true"
       random_scale="false"
       random_rotate="false"
       random_gap_y="false"
       random_gap_x="false"
       transformorigin="" />
    <inkscape:path-effect
       effect="tiling"
       id="path-effect3"
       is_visible="true"
       lpeversion="1.3.1"
       unit="in"
       seed="1;1"
       lpesatellites=""
       num_rows="39"
       num_cols="1"
       gapx="0"
       gapy="0.25"
       offset="0"
       offset_type="false"
       scale="0"
       rotate="0"
       mirrorrowsx="false"
       mirrorrowsy="false"
       mirrorcolsx="false"
       mirrorcolsy="false"
       mirrortrans="false"
       shrink_interp="false"
       split_items="false"
       link_styles="false"
       interpolate_scalex="false"
       interpolate_scaley="true"
       interpolate_rotatex="false"
       interpolate_rotatey="true"
       random_scale="false"
       random_rotate="false"
       random_gap_y="false"
       random_gap_x="false"
       transformorigin="" />
    <inkscape:path-effect
       effect="tiling"
       id="path-effect2"
       is_visible="true"
       lpeversion="1.3.1"
       unit="in"
       seed="1;1"
       lpesatellites=""
       num_rows="1"
       num_cols="27"
       gapx="0.25"
       gapy="0"
       offset="0"
       offset_type="false"
       scale="0"
       rotate="0"
       mirrorrowsx="false"
       mirrorrowsy="false"
       mirrorcolsx="false"
       mirrorcolsy="false"
       mirrortrans="false"
       shrink_interp="false"
       split_items="false"
       link_styles="false"
       interpolate_scalex="false"
       interpolate_scaley="true"
       interpolate_rotatex="false"
       interpolate_rotatey="true"
       random_scale="false"
       random_rotate="false"
       random_gap_y="false"
       random_gap_x="false"
       transformorigin="" />
  </defs>
  <g
     inkscape:label="Layer 1"
     inkscape:groupmode="layer"
     id="layer1">
    <rect
       style="fill:none;stroke:#a4dded;stroke-width:0.35277778;stroke-linecap:square;paint-order:markers stroke fill;stroke-dasharray:none;stroke-opacity:1"
       id="rect1"
       width="177.8"
       height="254"
       x="25.527714"
       y="12.827714"
       ry="6.3499999"
       inkscape:label="Outer Border" />
    <rect
       style="fill:none;stroke:#a4dded;stroke-width:0.17638889;stroke-linecap:square;paint-order:markers stroke fill;stroke-dasharray:none;stroke-opacity:1"
       id="rect5"
       width="171.45"
       height="247.64999"
       x="28.773376"
       y="16.073378"
       ry="3.175"
       inkscape:label="Inner Border" />
    <path
       style="fill:none;stroke:#a4dded;stroke-width:0.17638889;stroke-linecap:square;paint-order:markers stroke fill;stroke-dasharray:none;stroke-opacity:1"
       d="M 25.527714,12.827714 V 266.82774 m 6.35,-254.000026 V 266.82774 m 6.35,-254.000026 V 266.82774 m 6.35,-254.000026 V 266.82774 m 6.35,-254.000026 V 266.82774 m 6.35,-254.000026 V 266.82774 m 6.35,-254.000026 V 266.82774 m 6.35,-254.000026 V 266.82774 m 6.35,-254.000026 V 266.82774 m 6.35,-254.000026 V 266.82774 m 6.35,-254.000026 V 266.82774 m 6.35,-254.000026 V 266.82774 M 101.72771,12.827714 V 266.82774 m 6.35,-254.000026 V 266.82774 m 6.35,-254.000026 V 266.82774 m 6.35,-254.000026 V 266.82774 m 6.35,-254.000026 V 266.82774 m 6.35,-254.000026 V 266.82774 m 6.35,-254.000026 V 266.82774 m 6.35,-254.000026 V 266.82774 m 6.35,-254.000026 V 266.82774 m 6.35,-254.000026 V 266.82774 m 6.35,-254.000026 V 266.82774 m 6.35,-254.000026 V 266.82774 m 6.35,-254.000026 V 266.82774 m 6.35,-254.000026 V 266.82774 m 6.35,-254.000026 V 266.82774"
       id="path2"
       inkscape:path-effect="#path-effect2"
       inkscape:original-d="M 25.527714,12.827714 V 266.82774"
       transform="translate(6.3545775)"
       inkscape:label="Major Horizontal Rules" />
    <path
       style="fill:none;stroke:#a4dded;stroke-width:0.17638889;stroke-linecap:square;paint-order:markers stroke fill;stroke-dasharray:none;stroke-opacity:1"
       d="M 25.527714,19.182291 H 203.32771 m -177.799996,6.35 H 203.32771 m -177.799996,6.35 H 203.32771 m -177.799996,6.35 H 203.32771 m -177.799996,6.35 H 203.32771 m -177.799996,6.35 H 203.32771 m -177.799996,6.35 H 203.32771 m -177.799996,6.35 H 203.32771 m -177.799996,6.35 H 203.32771 m -177.799996,6.35 H 203.32771 m -177.799996,6.35 H 203.32771 m -177.799996,6.35 H 203.32771 m -177.799996,6.35 H 203.32771 M 25.527714,101.73229 H 203.32771 m -177.799996,6.35 H 203.32771 m -177.799996,6.35 H 203.32771 m -177.799996,6.35 H 203.32771 m -177.799996,6.35 H 203.32771 m -177.799996,6.35 H 203.32771 m -177.799996,6.35 H 203.32771 m -177.799996,6.35 H 203.32771 m -177.799996,6.35 H 203.32771 m -177.799996,6.35 H 203.32771 m -177.799996,6.35 H 203.32771 m -177.799996,6.35 H 203.32771 m -177.799996,6.35 H 203.32771 m -177.799996,6.35 H 203.32771 m -177.799996,6.35 H 203.32771 m -177.799996,6.35 H 203.32771 m -177.799996,6.35 H 203.32771 m -177.799996,6.35 H 203.32771 m -177.799996,6.35 H 203.32771 m -177.799996,6.35 H 203.32771 m -177.799996,6.35 H 203.32771 m -177.799996,6.35 H 203.32771 m -177.799996,6.35 H 203.32771 m -177.799996,6.35 H 203.32771 m -177.799996,6.35 H 203.32771 m -177.799996,6.35 H 203.32771"
       id="path3"
       inkscape:path-effect="#path-effect3"
       inkscape:original-d="M 25.527714,19.182291 H 203.32771"
       inkscape:label="Major Vertical Rules" />
    <path
       style="fill:none;stroke:#a4dded;stroke-width:0.04409722;stroke-linecap:square;paint-order:markers stroke fill;stroke-dasharray:none;stroke-opacity:1"
       d="M 31.882291,22.357291 H 196.98228 m -165.099989,6.35 H 196.98228 m -165.099989,6.35 H 196.98228 m -165.099989,6.35 H 196.98228 m -165.099989,6.35 H 196.98228 m -165.099989,6.35 H 196.98228 m -165.099989,6.35 H 196.98228 m -165.099989,6.35 H 196.98228 m -165.099989,6.35 H 196.98228 m -165.099989,6.35 H 196.98228 m -165.099989,6.35 H 196.98228 m -165.099989,6.35 H 196.98228 m -165.099989,6.35 H 196.98228 M 31.882291,104.90729 H 196.98228 m -165.099989,6.35 H 196.98228 m -165.099989,6.35 H 196.98228 m -165.099989,6.35 H 196.98228 m -165.099989,6.35 H 196.98228 m -165.099989,6.35 H 196.98228 m -165.099989,6.35 H 196.98228 m -165.099989,6.35 H 196.98228 m -165.099989,6.35 H 196.98228 m -165.099989,6.35 H 196.98228 m -165.099989,6.35 H 196.98228 m -165.099989,6.35 H 196.98228 m -165.099989,6.35 H 196.98228 m -165.099989,6.35 H 196.98228 m -165.099989,6.35 H 196.98228 m -165.099989,6.35 H 196.98228 m -165.099989,6.35 H 196.98228 m -165.099989,6.35 H 196.98228 m -165.099989,6.35 H 196.98228 m -165.099989,6.35 H 196.98228 m -165.099989,6.35 H 196.98228 m -165.099989,6.35 H 196.98228 m -165.099989,6.35 H 196.98228 m -165.099989,6.35 H 196.98228 m -165.099989,6.35 H 196.98228"
       id="path4"
       inkscape:path-effect="#path-effect4"
       inkscape:original-d="M 31.882291,22.357291 H 196.98228"
       inkscape:label="Minor Horizontal Rules" />
    <path
       style="fill:none;stroke:#a4dded;stroke-width:0.04409722;stroke-linecap:square;paint-order:markers stroke fill;stroke-dasharray:none;stroke-opacity:1"
       d="M 28.707291,19.182291 V 260.48229 m 6.35,-241.299999 V 260.48229 m 6.35,-241.299999 V 260.48229 m 6.35,-241.299999 V 260.48229 m 6.35,-241.299999 V 260.48229 m 6.35,-241.299999 V 260.48229 m 6.35,-241.299999 V 260.48229 m 6.35,-241.299999 V 260.48229 m 6.35,-241.299999 V 260.48229 m 6.35,-241.299999 V 260.48229 m 6.35,-241.299999 V 260.48229 m 6.35,-241.299999 V 260.48229 M 104.90729,19.182291 V 260.48229 m 6.35,-241.299999 V 260.48229 m 6.35,-241.299999 V 260.48229 m 6.35,-241.299999 V 260.48229 m 6.35,-241.299999 V 260.48229 m 6.35,-241.299999 V 260.48229 m 6.35,-241.299999 V 260.48229 m 6.35,-241.299999 V 260.48229 m 6.35,-241.299999 V 260.48229 m 6.35,-241.299999 V 260.48229 m 6.35,-241.299999 V 260.48229 m 6.35,-241.299999 V 260.48229 m 6.35,-241.299999 V 260.48229 m 6.35,-241.299999 V 260.48229"
       id="path5"
       inkscape:path-effect="#path-effect5"
       inkscape:original-d="M 28.707291,19.182291 V 260.48229"
       inkscape:label="Minor Vertical Rules"
       transform="translate(6.3500005)" />
  </g>
</svg>
